G04*
G04 #@! TF.GenerationSoftware,Altium Limited,Altium Designer,20.2.7 (254)*
G04*
G04 Layer_Color=65535*
%FSLAX25Y25*%
%MOIN*%
G70*
G04*
G04 #@! TF.SameCoordinates,EE1AD421-979F-440A-8BD1-8888F99C881E*
G04*
G04*
G04 #@! TF.FilePolarity,Positive*
G04*
G01*
G75*
%ADD10C,0.01181*%
%ADD11C,0.00500*%
%ADD12C,0.00787*%
%ADD13C,0.01575*%
%ADD14R,0.01575X0.08268*%
G36*
X150794Y126182D02*
X148724D01*
Y123572D01*
X150794D01*
Y122902D01*
X145749D01*
Y123572D01*
X148126D01*
Y126182D01*
X145749D01*
Y126853D01*
X150794D01*
Y126182D01*
D02*
G37*
G36*
X147696Y122071D02*
X147776Y122063D01*
X147864Y122056D01*
X147966Y122041D01*
X148068Y122020D01*
X148301Y121961D01*
X148418Y121925D01*
X148542Y121881D01*
X148658Y121823D01*
X148767Y121757D01*
X148877Y121684D01*
X148979Y121604D01*
X148986Y121597D01*
X149001Y121582D01*
X149023Y121553D01*
X149059Y121517D01*
X149096Y121473D01*
X149139Y121414D01*
X149190Y121349D01*
X149234Y121269D01*
X149285Y121188D01*
X149329Y121094D01*
X149373Y120992D01*
X149409Y120882D01*
X149445Y120766D01*
X149467Y120642D01*
X149482Y120510D01*
X149489Y120372D01*
Y120299D01*
X149482Y120248D01*
X149475Y120190D01*
X149460Y120117D01*
X149445Y120037D01*
X149424Y119942D01*
X149402Y119854D01*
X149365Y119752D01*
X149329Y119658D01*
X149278Y119555D01*
X149220Y119453D01*
X149154Y119351D01*
X149074Y119257D01*
X148986Y119169D01*
X148979Y119162D01*
X148964Y119147D01*
X148935Y119125D01*
X148891Y119096D01*
X148840Y119060D01*
X148782Y119023D01*
X148709Y118980D01*
X148622Y118936D01*
X148527Y118892D01*
X148425Y118848D01*
X148308Y118812D01*
X148184Y118775D01*
X148046Y118746D01*
X147900Y118724D01*
X147747Y118710D01*
X147579Y118702D01*
X147572D01*
X147543D01*
X147492D01*
X147419Y118710D01*
Y121444D01*
X147412D01*
X147390D01*
X147361Y121436D01*
X147317D01*
X147266Y121429D01*
X147207Y121414D01*
X147076Y121393D01*
X146931Y121349D01*
X146770Y121291D01*
X146624Y121210D01*
X146493Y121108D01*
Y121101D01*
X146478Y121094D01*
X146442Y121050D01*
X146391Y120984D01*
X146340Y120897D01*
X146282Y120780D01*
X146231Y120649D01*
X146194Y120503D01*
X146187Y120423D01*
X146180Y120335D01*
Y120277D01*
X146187Y120212D01*
X146202Y120131D01*
X146223Y120044D01*
X146253Y119942D01*
X146296Y119847D01*
X146354Y119752D01*
X146362Y119745D01*
X146391Y119709D01*
X146435Y119665D01*
X146493Y119614D01*
X146573Y119555D01*
X146675Y119490D01*
X146792Y119424D01*
X146931Y119366D01*
X146850Y118724D01*
X146843D01*
X146828Y118732D01*
X146799Y118739D01*
X146756Y118754D01*
X146712Y118775D01*
X146653Y118797D01*
X146529Y118856D01*
X146391Y118929D01*
X146245Y119031D01*
X146107Y119147D01*
X145975Y119293D01*
Y119300D01*
X145961Y119315D01*
X145946Y119337D01*
X145924Y119366D01*
X145903Y119410D01*
X145881Y119453D01*
X145852Y119512D01*
X145822Y119577D01*
X145793Y119650D01*
X145764Y119723D01*
X145720Y119905D01*
X145684Y120109D01*
X145669Y120335D01*
Y120416D01*
X145677Y120467D01*
X145684Y120532D01*
X145698Y120613D01*
X145713Y120700D01*
X145728Y120795D01*
X145786Y120999D01*
X145830Y121108D01*
X145873Y121210D01*
X145932Y121320D01*
X145997Y121422D01*
X146070Y121517D01*
X146158Y121611D01*
X146165Y121618D01*
X146180Y121633D01*
X146209Y121655D01*
X146253Y121684D01*
X146303Y121721D01*
X146362Y121757D01*
X146435Y121801D01*
X146515Y121844D01*
X146610Y121888D01*
X146712Y121932D01*
X146828Y121968D01*
X146952Y122005D01*
X147083Y122034D01*
X147229Y122056D01*
X147382Y122071D01*
X147543Y122078D01*
X147550D01*
X147587D01*
X147630D01*
X147696Y122071D01*
D02*
G37*
G36*
X149409Y117390D02*
X148855D01*
X148862Y117383D01*
X148913Y117354D01*
X148979Y117317D01*
X149059Y117259D01*
X149139Y117201D01*
X149227Y117135D01*
X149300Y117070D01*
X149358Y117004D01*
X149365Y116997D01*
X149380Y116975D01*
X149402Y116931D01*
X149424Y116887D01*
X149445Y116829D01*
X149467Y116756D01*
X149482Y116683D01*
X149489Y116603D01*
Y116552D01*
X149482Y116486D01*
X149467Y116406D01*
X149438Y116311D01*
X149402Y116209D01*
X149351Y116093D01*
X149285Y115969D01*
X148716Y116195D01*
X148724Y116202D01*
X148738Y116231D01*
X148760Y116275D01*
X148782Y116333D01*
X148804Y116399D01*
X148826Y116479D01*
X148840Y116559D01*
X148848Y116639D01*
Y116676D01*
X148840Y116712D01*
X148833Y116763D01*
X148819Y116814D01*
X148797Y116880D01*
X148767Y116946D01*
X148724Y117004D01*
X148716Y117011D01*
X148702Y117033D01*
X148673Y117055D01*
X148636Y117091D01*
X148585Y117128D01*
X148527Y117164D01*
X148461Y117201D01*
X148381Y117230D01*
X148367Y117237D01*
X148323Y117245D01*
X148257Y117259D01*
X148170Y117281D01*
X148060Y117303D01*
X147936Y117317D01*
X147805Y117325D01*
X147660Y117332D01*
X145749D01*
Y117952D01*
X149409D01*
Y117390D01*
D02*
G37*
G36*
X146807Y115801D02*
X146872Y115794D01*
X146952Y115779D01*
X147032Y115757D01*
X147120Y115728D01*
X147200Y115692D01*
X147207Y115684D01*
X147237Y115670D01*
X147280Y115641D01*
X147331Y115604D01*
X147390Y115560D01*
X147448Y115502D01*
X147506Y115444D01*
X147557Y115371D01*
X147565Y115364D01*
X147579Y115334D01*
X147608Y115298D01*
X147638Y115240D01*
X147667Y115174D01*
X147703Y115094D01*
X147732Y115014D01*
X147761Y114919D01*
Y114912D01*
X147769Y114883D01*
X147783Y114839D01*
X147791Y114780D01*
X147805Y114708D01*
X147820Y114613D01*
X147842Y114504D01*
X147856Y114372D01*
Y114365D01*
X147864Y114336D01*
Y114299D01*
X147871Y114248D01*
X147878Y114190D01*
X147893Y114117D01*
X147900Y114037D01*
X147915Y113950D01*
X147951Y113775D01*
X147987Y113585D01*
X148031Y113417D01*
X148053Y113337D01*
X148075Y113264D01*
X148082D01*
X148097D01*
X148141Y113257D01*
X148192D01*
X148221D01*
X148235D01*
X148243D01*
X148250D01*
X148294D01*
X148367Y113264D01*
X148447Y113279D01*
X148534Y113301D01*
X148622Y113337D01*
X148702Y113381D01*
X148767Y113439D01*
X148775Y113446D01*
X148804Y113483D01*
X148833Y113541D01*
X148877Y113614D01*
X148913Y113716D01*
X148950Y113833D01*
X148972Y113979D01*
X148979Y114146D01*
Y114219D01*
X148972Y114292D01*
X148957Y114394D01*
X148942Y114496D01*
X148913Y114605D01*
X148877Y114708D01*
X148826Y114795D01*
X148819Y114802D01*
X148797Y114831D01*
X148760Y114868D01*
X148702Y114912D01*
X148629Y114955D01*
X148534Y115006D01*
X148418Y115050D01*
X148286Y115094D01*
X148367Y115699D01*
X148374D01*
X148381Y115692D01*
X148403D01*
X148432Y115684D01*
X148498Y115663D01*
X148593Y115633D01*
X148687Y115597D01*
X148789Y115553D01*
X148891Y115495D01*
X148986Y115429D01*
X148994Y115422D01*
X149023Y115393D01*
X149066Y115349D01*
X149125Y115291D01*
X149183Y115211D01*
X149241Y115116D01*
X149307Y115006D01*
X149358Y114883D01*
Y114875D01*
X149365Y114868D01*
X149373Y114846D01*
X149380Y114817D01*
X149402Y114744D01*
X149424Y114642D01*
X149445Y114525D01*
X149467Y114380D01*
X149482Y114226D01*
X149489Y114051D01*
Y113971D01*
X149482Y113891D01*
X149475Y113782D01*
X149460Y113658D01*
X149438Y113534D01*
X149409Y113410D01*
X149373Y113293D01*
X149365Y113279D01*
X149351Y113242D01*
X149329Y113191D01*
X149300Y113126D01*
X149256Y113053D01*
X149212Y112980D01*
X149154Y112914D01*
X149096Y112856D01*
X149088Y112849D01*
X149066Y112834D01*
X149030Y112812D01*
X148986Y112783D01*
X148921Y112747D01*
X148855Y112717D01*
X148775Y112688D01*
X148680Y112666D01*
X148673D01*
X148651Y112659D01*
X148607Y112652D01*
X148549Y112645D01*
X148469D01*
X148374Y112637D01*
X148250Y112630D01*
X148111D01*
X147280D01*
X147273D01*
X147244D01*
X147200D01*
X147142D01*
X147076D01*
X146996D01*
X146821Y112623D01*
X146639D01*
X146457Y112615D01*
X146376Y112608D01*
X146303D01*
X146238Y112601D01*
X146187Y112593D01*
X146180D01*
X146150Y112586D01*
X146107Y112579D01*
X146048Y112557D01*
X145983Y112542D01*
X145910Y112513D01*
X145830Y112477D01*
X145749Y112440D01*
Y113089D01*
X145757Y113096D01*
X145786Y113104D01*
X145822Y113118D01*
X145881Y113140D01*
X145946Y113162D01*
X146027Y113177D01*
X146114Y113191D01*
X146209Y113206D01*
Y113213D01*
X146194Y113221D01*
X146158Y113264D01*
X146107Y113330D01*
X146041Y113417D01*
X145975Y113527D01*
X145903Y113636D01*
X145837Y113753D01*
X145786Y113876D01*
X145779Y113891D01*
X145771Y113935D01*
X145749Y114000D01*
X145728Y114081D01*
X145706Y114183D01*
X145691Y114299D01*
X145677Y114431D01*
X145669Y114562D01*
Y114620D01*
X145677Y114664D01*
Y114715D01*
X145684Y114773D01*
X145706Y114904D01*
X145742Y115050D01*
X145793Y115211D01*
X145866Y115356D01*
X145961Y115488D01*
X145975Y115502D01*
X146012Y115539D01*
X146078Y115590D01*
X146165Y115648D01*
X146274Y115706D01*
X146398Y115757D01*
X146551Y115794D01*
X146624Y115801D01*
X146712Y115808D01*
X146726D01*
X146756D01*
X146807Y115801D01*
D02*
G37*
G36*
X146938Y111311D02*
X146931D01*
X146923D01*
X146879Y111296D01*
X146807Y111281D01*
X146726Y111252D01*
X146639Y111216D01*
X146544Y111172D01*
X146449Y111106D01*
X146369Y111026D01*
X146362Y111012D01*
X146340Y110982D01*
X146311Y110924D01*
X146274Y110851D01*
X146238Y110756D01*
X146209Y110647D01*
X146187Y110516D01*
X146180Y110363D01*
Y110290D01*
X146187Y110217D01*
X146202Y110122D01*
X146223Y110020D01*
X146253Y109911D01*
X146289Y109816D01*
X146347Y109729D01*
X146354Y109721D01*
X146376Y109692D01*
X146413Y109663D01*
X146464Y109619D01*
X146522Y109583D01*
X146595Y109546D01*
X146668Y109524D01*
X146756Y109517D01*
X146763D01*
X146792D01*
X146828Y109524D01*
X146879Y109539D01*
X146931Y109561D01*
X146982Y109597D01*
X147040Y109641D01*
X147083Y109707D01*
X147091Y109714D01*
X147098Y109736D01*
X147120Y109772D01*
X147142Y109831D01*
X147171Y109918D01*
X147193Y109969D01*
X147207Y110027D01*
X147229Y110093D01*
X147251Y110166D01*
X147273Y110246D01*
X147295Y110341D01*
Y110348D01*
X147302Y110370D01*
X147310Y110406D01*
X147324Y110450D01*
X147339Y110509D01*
X147361Y110574D01*
X147397Y110713D01*
X147448Y110873D01*
X147492Y111026D01*
X147543Y111172D01*
X147572Y111238D01*
X147594Y111289D01*
X147601Y111303D01*
X147616Y111332D01*
X147645Y111376D01*
X147681Y111434D01*
X147732Y111500D01*
X147791Y111566D01*
X147856Y111631D01*
X147936Y111690D01*
X147944Y111697D01*
X147973Y111711D01*
X148024Y111733D01*
X148082Y111755D01*
X148155Y111777D01*
X148243Y111799D01*
X148330Y111813D01*
X148432Y111821D01*
X148447D01*
X148476D01*
X148520Y111813D01*
X148585Y111806D01*
X148651Y111792D01*
X148731Y111777D01*
X148804Y111748D01*
X148884Y111711D01*
X148891Y111704D01*
X148921Y111690D01*
X148957Y111668D01*
X149008Y111631D01*
X149059Y111588D01*
X149125Y111537D01*
X149183Y111478D01*
X149234Y111405D01*
X149241Y111398D01*
X149249Y111376D01*
X149271Y111347D01*
X149292Y111303D01*
X149322Y111245D01*
X149351Y111179D01*
X149380Y111099D01*
X149409Y111012D01*
X149416Y110997D01*
X149424Y110968D01*
X149438Y110917D01*
X149453Y110851D01*
X149467Y110771D01*
X149475Y110684D01*
X149489Y110582D01*
Y110406D01*
X149482Y110326D01*
X149475Y110217D01*
X149460Y110100D01*
X149431Y109976D01*
X149402Y109845D01*
X149358Y109721D01*
Y109714D01*
X149351Y109707D01*
X149336Y109670D01*
X149307Y109612D01*
X149271Y109539D01*
X149220Y109459D01*
X149161Y109379D01*
X149096Y109306D01*
X149023Y109240D01*
X149015Y109233D01*
X148986Y109218D01*
X148935Y109189D01*
X148877Y109153D01*
X148789Y109116D01*
X148695Y109080D01*
X148585Y109051D01*
X148461Y109021D01*
X148381Y109626D01*
X148396D01*
X148425Y109634D01*
X148476Y109648D01*
X148542Y109670D01*
X148607Y109707D01*
X148680Y109750D01*
X148753Y109801D01*
X148819Y109874D01*
X148826Y109882D01*
X148840Y109911D01*
X148870Y109955D01*
X148899Y110020D01*
X148928Y110093D01*
X148957Y110188D01*
X148972Y110304D01*
X148979Y110428D01*
Y110501D01*
X148972Y110574D01*
X148964Y110669D01*
X148942Y110764D01*
X148921Y110866D01*
X148884Y110960D01*
X148833Y111041D01*
X148826Y111048D01*
X148811Y111070D01*
X148782Y111099D01*
X148738Y111128D01*
X148695Y111165D01*
X148636Y111194D01*
X148571Y111216D01*
X148505Y111223D01*
X148498D01*
X148483D01*
X148461Y111216D01*
X148432D01*
X148359Y111194D01*
X148286Y111150D01*
X148279Y111143D01*
X148272Y111135D01*
X148250Y111121D01*
X148228Y111092D01*
X148206Y111063D01*
X148177Y111019D01*
X148155Y110968D01*
X148126Y110909D01*
Y110902D01*
X148119Y110888D01*
X148111Y110859D01*
X148090Y110808D01*
X148068Y110735D01*
X148046Y110640D01*
X148024Y110582D01*
X148009Y110516D01*
X147987Y110443D01*
X147966Y110363D01*
Y110355D01*
X147958Y110334D01*
X147951Y110297D01*
X147936Y110253D01*
X147922Y110202D01*
X147907Y110137D01*
X147864Y109998D01*
X147820Y109845D01*
X147769Y109692D01*
X147718Y109554D01*
X147696Y109495D01*
X147674Y109444D01*
X147667Y109430D01*
X147652Y109400D01*
X147630Y109357D01*
X147594Y109291D01*
X147550Y109225D01*
X147492Y109160D01*
X147426Y109094D01*
X147353Y109036D01*
X147346Y109029D01*
X147317Y109014D01*
X147273Y108985D01*
X147207Y108956D01*
X147127Y108934D01*
X147040Y108905D01*
X146938Y108890D01*
X146821Y108883D01*
X146807D01*
X146770D01*
X146712Y108890D01*
X146632Y108905D01*
X146544Y108927D01*
X146449Y108963D01*
X146340Y109007D01*
X146238Y109065D01*
X146223Y109072D01*
X146194Y109102D01*
X146143Y109138D01*
X146085Y109196D01*
X146019Y109277D01*
X145946Y109364D01*
X145881Y109466D01*
X145815Y109590D01*
Y109597D01*
X145808Y109605D01*
X145793Y109648D01*
X145771Y109721D01*
X145742Y109816D01*
X145713Y109933D01*
X145691Y110064D01*
X145677Y110202D01*
X145669Y110363D01*
Y110428D01*
X145677Y110479D01*
Y110538D01*
X145684Y110611D01*
X145691Y110684D01*
X145706Y110764D01*
X145742Y110939D01*
X145793Y111121D01*
X145866Y111296D01*
X145910Y111376D01*
X145961Y111449D01*
X145968Y111456D01*
X145975Y111464D01*
X146019Y111507D01*
X146085Y111573D01*
X146187Y111646D01*
X146311Y111726D01*
X146457Y111806D01*
X146639Y111872D01*
X146843Y111923D01*
X146938Y111311D01*
D02*
G37*
G36*
X150794Y107527D02*
X148986D01*
X148994Y107520D01*
X149008Y107505D01*
X149030Y107483D01*
X149066Y107447D01*
X149103Y107410D01*
X149147Y107359D01*
X149190Y107294D01*
X149241Y107228D01*
X149285Y107155D01*
X149329Y107075D01*
X149409Y106885D01*
X149445Y106783D01*
X149467Y106674D01*
X149482Y106557D01*
X149489Y106441D01*
Y106375D01*
X149482Y106295D01*
X149467Y106200D01*
X149453Y106091D01*
X149424Y105974D01*
X149380Y105858D01*
X149329Y105741D01*
X149322Y105726D01*
X149300Y105690D01*
X149263Y105639D01*
X149212Y105573D01*
X149147Y105508D01*
X149074Y105435D01*
X148986Y105369D01*
X148884Y105311D01*
X148870Y105304D01*
X148833Y105289D01*
X148767Y105267D01*
X148673Y105245D01*
X148556Y105223D01*
X148418Y105201D01*
X148250Y105187D01*
X148060Y105180D01*
X145749D01*
Y105799D01*
X148068D01*
X148075D01*
X148090D01*
X148111D01*
X148141D01*
X148221Y105807D01*
X148323Y105821D01*
X148432Y105850D01*
X148542Y105887D01*
X148651Y105938D01*
X148738Y106003D01*
X148746Y106011D01*
X148775Y106040D01*
X148811Y106084D01*
X148848Y106149D01*
X148891Y106229D01*
X148921Y106324D01*
X148950Y106441D01*
X148957Y106572D01*
Y106616D01*
X148950Y106667D01*
X148942Y106740D01*
X148921Y106813D01*
X148899Y106900D01*
X148862Y106988D01*
X148811Y107082D01*
X148804Y107090D01*
X148782Y107119D01*
X148753Y107162D01*
X148709Y107213D01*
X148651Y107272D01*
X148585Y107330D01*
X148505Y107381D01*
X148418Y107425D01*
X148403Y107432D01*
X148374Y107439D01*
X148316Y107454D01*
X148243Y107476D01*
X148148Y107498D01*
X148031Y107512D01*
X147900Y107520D01*
X147747Y107527D01*
X145749D01*
Y108147D01*
X150794D01*
Y107527D01*
D02*
G37*
G36*
X147718Y104400D02*
X147776D01*
X147842Y104392D01*
X147915Y104385D01*
X148075Y104363D01*
X148250Y104327D01*
X148425Y104283D01*
X148600Y104217D01*
X148607D01*
X148622Y104210D01*
X148644Y104195D01*
X148673Y104181D01*
X148753Y104137D01*
X148848Y104071D01*
X148957Y103984D01*
X149066Y103882D01*
X149176Y103758D01*
X149263Y103620D01*
Y103612D01*
X149271Y103598D01*
X149285Y103576D01*
X149300Y103547D01*
X149314Y103510D01*
X149336Y103466D01*
X149380Y103357D01*
X149416Y103233D01*
X149453Y103080D01*
X149482Y102920D01*
X149489Y102745D01*
Y102686D01*
X149482Y102643D01*
Y102599D01*
X149475Y102541D01*
X149453Y102402D01*
X149416Y102249D01*
X149358Y102089D01*
X149285Y101928D01*
X149183Y101775D01*
Y101768D01*
X149169Y101761D01*
X149125Y101717D01*
X149059Y101651D01*
X148964Y101571D01*
X148848Y101491D01*
X148702Y101411D01*
X148534Y101338D01*
X148337Y101287D01*
X148243Y101892D01*
X148250D01*
X148257Y101899D01*
X148301Y101906D01*
X148367Y101928D01*
X148447Y101965D01*
X148534Y102001D01*
X148629Y102059D01*
X148716Y102125D01*
X148789Y102198D01*
X148797Y102205D01*
X148819Y102234D01*
X148848Y102286D01*
X148884Y102344D01*
X148921Y102424D01*
X148950Y102511D01*
X148972Y102613D01*
X148979Y102723D01*
Y102767D01*
X148972Y102803D01*
X148964Y102883D01*
X148935Y102993D01*
X148899Y103109D01*
X148840Y103240D01*
X148753Y103364D01*
X148702Y103423D01*
X148644Y103481D01*
X148636D01*
X148629Y103496D01*
X148607Y103510D01*
X148578Y103525D01*
X148542Y103547D01*
X148498Y103576D01*
X148447Y103598D01*
X148389Y103627D01*
X148316Y103656D01*
X148235Y103678D01*
X148148Y103707D01*
X148053Y103729D01*
X147951Y103744D01*
X147834Y103758D01*
X147711Y103773D01*
X147579D01*
X147572D01*
X147550D01*
X147506D01*
X147463Y103765D01*
X147397D01*
X147331Y103758D01*
X147171Y103736D01*
X146996Y103707D01*
X146814Y103656D01*
X146653Y103590D01*
X146573Y103547D01*
X146508Y103496D01*
X146493Y103481D01*
X146457Y103445D01*
X146406Y103379D01*
X146347Y103299D01*
X146282Y103189D01*
X146231Y103066D01*
X146194Y102920D01*
X146187Y102840D01*
X146180Y102759D01*
Y102745D01*
X146187Y102701D01*
X146194Y102628D01*
X146209Y102548D01*
X146231Y102453D01*
X146274Y102351D01*
X146325Y102249D01*
X146398Y102154D01*
X146406Y102140D01*
X146442Y102118D01*
X146493Y102074D01*
X146573Y102023D01*
X146668Y101972D01*
X146785Y101914D01*
X146931Y101870D01*
X147091Y101841D01*
X147011Y101228D01*
X147003D01*
X146982Y101236D01*
X146952Y101243D01*
X146909Y101250D01*
X146850Y101265D01*
X146792Y101279D01*
X146646Y101330D01*
X146493Y101396D01*
X146325Y101491D01*
X146165Y101608D01*
X146092Y101673D01*
X146019Y101746D01*
X146012Y101753D01*
X146005Y101768D01*
X145990Y101790D01*
X145968Y101819D01*
X145939Y101855D01*
X145910Y101906D01*
X145881Y101965D01*
X145844Y102023D01*
X145779Y102169D01*
X145728Y102344D01*
X145684Y102533D01*
X145677Y102643D01*
X145669Y102752D01*
Y102825D01*
X145677Y102876D01*
X145684Y102942D01*
X145698Y103015D01*
X145713Y103095D01*
X145728Y103182D01*
X145786Y103379D01*
X145830Y103474D01*
X145873Y103576D01*
X145932Y103678D01*
X145997Y103773D01*
X146070Y103867D01*
X146158Y103955D01*
X146165Y103962D01*
X146180Y103977D01*
X146209Y103999D01*
X146245Y104028D01*
X146296Y104057D01*
X146362Y104101D01*
X146435Y104137D01*
X146515Y104181D01*
X146610Y104225D01*
X146719Y104261D01*
X146828Y104305D01*
X146960Y104334D01*
X147091Y104363D01*
X147244Y104385D01*
X147397Y104400D01*
X147565Y104407D01*
X147572D01*
X147594D01*
X147623D01*
X147667D01*
X147718Y104400D01*
D02*
G37*
G36*
X150794Y100077D02*
X148986D01*
X148994Y100069D01*
X149008Y100055D01*
X149030Y100033D01*
X149066Y99996D01*
X149103Y99960D01*
X149147Y99909D01*
X149190Y99843D01*
X149241Y99778D01*
X149285Y99705D01*
X149329Y99625D01*
X149409Y99435D01*
X149445Y99333D01*
X149467Y99224D01*
X149482Y99107D01*
X149489Y98990D01*
Y98925D01*
X149482Y98845D01*
X149467Y98750D01*
X149453Y98640D01*
X149424Y98524D01*
X149380Y98407D01*
X149329Y98290D01*
X149322Y98276D01*
X149300Y98239D01*
X149263Y98189D01*
X149212Y98123D01*
X149147Y98057D01*
X149074Y97984D01*
X148986Y97919D01*
X148884Y97860D01*
X148870Y97853D01*
X148833Y97838D01*
X148767Y97817D01*
X148673Y97795D01*
X148556Y97773D01*
X148418Y97751D01*
X148250Y97737D01*
X148060Y97729D01*
X145749D01*
Y98349D01*
X148068D01*
X148075D01*
X148090D01*
X148111D01*
X148141D01*
X148221Y98356D01*
X148323Y98371D01*
X148432Y98400D01*
X148542Y98436D01*
X148651Y98487D01*
X148738Y98553D01*
X148746Y98560D01*
X148775Y98589D01*
X148811Y98633D01*
X148848Y98699D01*
X148891Y98779D01*
X148921Y98874D01*
X148950Y98990D01*
X148957Y99122D01*
Y99165D01*
X148950Y99216D01*
X148942Y99289D01*
X148921Y99362D01*
X148899Y99450D01*
X148862Y99537D01*
X148811Y99632D01*
X148804Y99639D01*
X148782Y99668D01*
X148753Y99712D01*
X148709Y99763D01*
X148651Y99821D01*
X148585Y99880D01*
X148505Y99931D01*
X148418Y99975D01*
X148403Y99982D01*
X148374Y99989D01*
X148316Y100004D01*
X148243Y100025D01*
X148148Y100047D01*
X148031Y100062D01*
X147900Y100069D01*
X147747Y100077D01*
X145749D01*
Y100696D01*
X150794D01*
Y100077D01*
D02*
G37*
G36*
X147696Y96978D02*
X147776Y96971D01*
X147864Y96964D01*
X147966Y96949D01*
X148068Y96927D01*
X148301Y96869D01*
X148418Y96833D01*
X148542Y96789D01*
X148658Y96731D01*
X148767Y96665D01*
X148877Y96592D01*
X148979Y96512D01*
X148986Y96504D01*
X149001Y96490D01*
X149023Y96461D01*
X149059Y96424D01*
X149096Y96381D01*
X149139Y96322D01*
X149190Y96257D01*
X149234Y96176D01*
X149285Y96096D01*
X149329Y96001D01*
X149373Y95899D01*
X149409Y95790D01*
X149445Y95673D01*
X149467Y95549D01*
X149482Y95418D01*
X149489Y95280D01*
Y95207D01*
X149482Y95156D01*
X149475Y95098D01*
X149460Y95025D01*
X149445Y94944D01*
X149424Y94850D01*
X149402Y94762D01*
X149365Y94660D01*
X149329Y94565D01*
X149278Y94463D01*
X149220Y94361D01*
X149154Y94259D01*
X149074Y94164D01*
X148986Y94077D01*
X148979Y94070D01*
X148964Y94055D01*
X148935Y94033D01*
X148891Y94004D01*
X148840Y93968D01*
X148782Y93931D01*
X148709Y93887D01*
X148622Y93844D01*
X148527Y93800D01*
X148425Y93756D01*
X148308Y93720D01*
X148184Y93683D01*
X148046Y93654D01*
X147900Y93632D01*
X147747Y93618D01*
X147579Y93610D01*
X147572D01*
X147543D01*
X147492D01*
X147419Y93618D01*
Y96351D01*
X147412D01*
X147390D01*
X147361Y96344D01*
X147317D01*
X147266Y96337D01*
X147207Y96322D01*
X147076Y96300D01*
X146931Y96257D01*
X146770Y96198D01*
X146624Y96118D01*
X146493Y96016D01*
Y96009D01*
X146478Y96001D01*
X146442Y95958D01*
X146391Y95892D01*
X146340Y95805D01*
X146282Y95688D01*
X146231Y95557D01*
X146194Y95411D01*
X146187Y95331D01*
X146180Y95243D01*
Y95185D01*
X146187Y95119D01*
X146202Y95039D01*
X146223Y94952D01*
X146253Y94850D01*
X146296Y94755D01*
X146354Y94660D01*
X146362Y94653D01*
X146391Y94616D01*
X146435Y94573D01*
X146493Y94522D01*
X146573Y94463D01*
X146675Y94398D01*
X146792Y94332D01*
X146931Y94274D01*
X146850Y93632D01*
X146843D01*
X146828Y93639D01*
X146799Y93647D01*
X146756Y93661D01*
X146712Y93683D01*
X146653Y93705D01*
X146529Y93763D01*
X146391Y93836D01*
X146245Y93938D01*
X146107Y94055D01*
X145975Y94201D01*
Y94208D01*
X145961Y94223D01*
X145946Y94245D01*
X145924Y94274D01*
X145903Y94318D01*
X145881Y94361D01*
X145852Y94419D01*
X145822Y94485D01*
X145793Y94558D01*
X145764Y94631D01*
X145720Y94813D01*
X145684Y95017D01*
X145669Y95243D01*
Y95323D01*
X145677Y95375D01*
X145684Y95440D01*
X145698Y95520D01*
X145713Y95608D01*
X145728Y95703D01*
X145786Y95907D01*
X145830Y96016D01*
X145873Y96118D01*
X145932Y96228D01*
X145997Y96329D01*
X146070Y96424D01*
X146158Y96519D01*
X146165Y96526D01*
X146180Y96541D01*
X146209Y96563D01*
X146253Y96592D01*
X146303Y96628D01*
X146362Y96665D01*
X146435Y96709D01*
X146515Y96752D01*
X146610Y96796D01*
X146712Y96840D01*
X146828Y96876D01*
X146952Y96913D01*
X147083Y96942D01*
X147229Y96964D01*
X147382Y96978D01*
X147543Y96986D01*
X147550D01*
X147587D01*
X147630D01*
X147696Y96978D01*
D02*
G37*
G36*
X149409Y92298D02*
X148884D01*
X148891Y92291D01*
X148913Y92276D01*
X148942Y92254D01*
X148979Y92225D01*
X149023Y92181D01*
X149074Y92131D01*
X149132Y92072D01*
X149190Y91999D01*
X149241Y91926D01*
X149300Y91839D01*
X149351Y91744D01*
X149395Y91642D01*
X149431Y91525D01*
X149460Y91409D01*
X149482Y91277D01*
X149489Y91139D01*
Y91081D01*
X149482Y91022D01*
X149475Y90942D01*
X149460Y90847D01*
X149438Y90745D01*
X149409Y90636D01*
X149365Y90534D01*
X149358Y90519D01*
X149344Y90490D01*
X149322Y90439D01*
X149285Y90381D01*
X149241Y90308D01*
X149183Y90242D01*
X149125Y90177D01*
X149052Y90118D01*
X149045Y90111D01*
X149015Y90097D01*
X148979Y90075D01*
X148928Y90038D01*
X148855Y90009D01*
X148782Y89980D01*
X148695Y89943D01*
X148600Y89922D01*
X148593D01*
X148563Y89914D01*
X148520Y89907D01*
X148461Y89900D01*
X148374D01*
X148272Y89892D01*
X148148Y89885D01*
X147995D01*
X145749D01*
Y90505D01*
X147966D01*
X147973D01*
X147980D01*
X148031D01*
X148097D01*
X148177Y90512D01*
X148272Y90519D01*
X148367Y90534D01*
X148454Y90556D01*
X148534Y90578D01*
X148542D01*
X148563Y90592D01*
X148600Y90614D01*
X148644Y90636D01*
X148687Y90672D01*
X148738Y90716D01*
X148789Y90775D01*
X148833Y90840D01*
X148840Y90847D01*
X148855Y90869D01*
X148870Y90913D01*
X148891Y90964D01*
X148913Y91022D01*
X148935Y91095D01*
X148942Y91183D01*
X148950Y91270D01*
Y91307D01*
X148942Y91336D01*
X148935Y91409D01*
X148921Y91504D01*
X148884Y91606D01*
X148840Y91722D01*
X148782Y91839D01*
X148695Y91948D01*
X148680Y91963D01*
X148644Y91992D01*
X148615Y92014D01*
X148578Y92036D01*
X148534Y92065D01*
X148483Y92087D01*
X148425Y92116D01*
X148352Y92145D01*
X148272Y92167D01*
X148184Y92189D01*
X148090Y92203D01*
X147987Y92218D01*
X147864Y92233D01*
X147740D01*
X145749D01*
Y92852D01*
X149409D01*
Y92298D01*
D02*
G37*
G36*
X150794Y88310D02*
X147915D01*
X149409Y86845D01*
Y86036D01*
X148046Y87443D01*
X145749Y85897D01*
Y86663D01*
X147616Y87880D01*
X147200Y88310D01*
X145749D01*
Y88930D01*
X150794D01*
Y88310D01*
D02*
G37*
G36*
X147674Y85628D02*
X147747D01*
X147827Y85620D01*
X147929Y85606D01*
X148031Y85591D01*
X148148Y85562D01*
X148265Y85533D01*
X148389Y85497D01*
X148520Y85453D01*
X148644Y85395D01*
X148760Y85336D01*
X148877Y85256D01*
X148986Y85176D01*
X149081Y85074D01*
X149088Y85066D01*
X149096Y85052D01*
X149118Y85023D01*
X149147Y84986D01*
X149176Y84943D01*
X149212Y84884D01*
X149249Y84826D01*
X149285Y84753D01*
X149322Y84673D01*
X149358Y84585D01*
X149424Y84389D01*
X149475Y84162D01*
X149482Y84046D01*
X149489Y83922D01*
Y83849D01*
X149482Y83798D01*
X149475Y83732D01*
X149460Y83659D01*
X149445Y83579D01*
X149431Y83485D01*
X149365Y83288D01*
X149329Y83186D01*
X149278Y83084D01*
X149227Y82981D01*
X149154Y82880D01*
X149081Y82785D01*
X148994Y82690D01*
X148986Y82683D01*
X148972Y82668D01*
X148942Y82646D01*
X148906Y82617D01*
X148855Y82581D01*
X148789Y82537D01*
X148716Y82493D01*
X148636Y82449D01*
X148549Y82406D01*
X148440Y82362D01*
X148330Y82318D01*
X148206Y82282D01*
X148075Y82253D01*
X147936Y82231D01*
X147791Y82216D01*
X147630Y82209D01*
X147623D01*
X147601D01*
X147565D01*
X147514D01*
X147455Y82216D01*
X147382Y82223D01*
X147310D01*
X147229Y82238D01*
X147047Y82260D01*
X146865Y82304D01*
X146683Y82355D01*
X146515Y82428D01*
X146508D01*
X146500Y82435D01*
X146478Y82449D01*
X146449Y82464D01*
X146376Y82515D01*
X146289Y82581D01*
X146187Y82668D01*
X146085Y82777D01*
X145983Y82901D01*
X145888Y83047D01*
Y83054D01*
X145881Y83062D01*
X145866Y83084D01*
X145852Y83120D01*
X145837Y83157D01*
X145822Y83200D01*
X145779Y83310D01*
X145742Y83434D01*
X145706Y83587D01*
X145677Y83747D01*
X145669Y83922D01*
Y83995D01*
X145677Y84053D01*
X145684Y84119D01*
X145698Y84192D01*
X145713Y84279D01*
X145728Y84367D01*
X145786Y84563D01*
X145830Y84673D01*
X145873Y84775D01*
X145932Y84877D01*
X145997Y84979D01*
X146070Y85074D01*
X146158Y85168D01*
X146165Y85176D01*
X146180Y85190D01*
X146209Y85212D01*
X146253Y85241D01*
X146303Y85278D01*
X146362Y85314D01*
X146435Y85358D01*
X146522Y85402D01*
X146617Y85446D01*
X146726Y85489D01*
X146843Y85526D01*
X146967Y85562D01*
X147105Y85591D01*
X147251Y85613D01*
X147412Y85628D01*
X147579Y85635D01*
X147594D01*
X147623D01*
X147674Y85628D01*
D02*
G37*
G36*
X150794Y78068D02*
Y77339D01*
X145749Y75276D01*
Y76034D01*
X147280Y76625D01*
Y78739D01*
X145749Y79286D01*
Y79993D01*
X150794Y78068D01*
D02*
G37*
G36*
X146457Y73935D02*
X145749D01*
Y74642D01*
X146457D01*
Y73935D01*
D02*
G37*
G36*
X159988Y122573D02*
X159390D01*
Y125314D01*
X157830D01*
Y122944D01*
X157232D01*
Y125314D01*
X154943D01*
Y125984D01*
X159988D01*
Y122573D01*
D02*
G37*
G36*
Y120728D02*
X156408Y119533D01*
X156401D01*
X156386Y119525D01*
X156365Y119518D01*
X156328Y119503D01*
X156241Y119474D01*
X156131Y119438D01*
X156007Y119401D01*
X155883Y119358D01*
X155767Y119321D01*
X155665Y119292D01*
X155679Y119285D01*
X155716Y119277D01*
X155781Y119256D01*
X155869Y119226D01*
X155985Y119190D01*
X156124Y119139D01*
X156284Y119088D01*
X156474Y119022D01*
X159988Y117812D01*
Y116916D01*
X154943D01*
Y117557D01*
X159164D01*
X154943Y119030D01*
Y119627D01*
X159237Y121085D01*
X154943D01*
Y121727D01*
X159988D01*
Y120728D01*
D02*
G37*
G36*
X158603Y113402D02*
X158078D01*
X158092Y113394D01*
X158121Y113373D01*
X158173Y113329D01*
X158231Y113278D01*
X158304Y113212D01*
X158377Y113132D01*
X158449Y113045D01*
X158515Y112942D01*
X158522Y112928D01*
X158544Y112891D01*
X158566Y112833D01*
X158603Y112753D01*
X158632Y112658D01*
X158654Y112549D01*
X158676Y112425D01*
X158683Y112294D01*
Y112228D01*
X158676Y112148D01*
X158661Y112060D01*
X158639Y111951D01*
X158610Y111842D01*
X158566Y111732D01*
X158508Y111630D01*
X158501Y111616D01*
X158479Y111586D01*
X158442Y111543D01*
X158384Y111484D01*
X158318Y111426D01*
X158238Y111361D01*
X158143Y111302D01*
X158034Y111258D01*
X158041Y111251D01*
X158063Y111237D01*
X158092Y111215D01*
X158136Y111178D01*
X158187Y111135D01*
X158238Y111083D01*
X158296Y111025D01*
X158362Y110952D01*
X158420Y110872D01*
X158479Y110792D01*
X158530Y110697D01*
X158581Y110595D01*
X158624Y110486D01*
X158654Y110369D01*
X158676Y110252D01*
X158683Y110121D01*
Y110070D01*
X158676Y110034D01*
Y109983D01*
X158668Y109932D01*
X158646Y109808D01*
X158610Y109677D01*
X158552Y109538D01*
X158479Y109399D01*
X158377Y109283D01*
X158362Y109268D01*
X158318Y109239D01*
X158253Y109188D01*
X158202Y109166D01*
X158151Y109137D01*
X158085Y109108D01*
X158019Y109086D01*
X157947Y109057D01*
X157859Y109035D01*
X157772Y109020D01*
X157669Y109006D01*
X157567Y108991D01*
X157451D01*
X154943D01*
Y109611D01*
X157239D01*
X157247D01*
X157254D01*
X157298D01*
X157363D01*
X157443Y109618D01*
X157531Y109625D01*
X157618Y109633D01*
X157706Y109647D01*
X157772Y109669D01*
X157779D01*
X157801Y109684D01*
X157830Y109698D01*
X157866Y109720D01*
X157910Y109749D01*
X157954Y109786D01*
X157998Y109830D01*
X158041Y109888D01*
X158048Y109895D01*
X158056Y109917D01*
X158070Y109946D01*
X158092Y109997D01*
X158114Y110048D01*
X158129Y110114D01*
X158136Y110179D01*
X158143Y110260D01*
Y110296D01*
X158136Y110325D01*
X158129Y110398D01*
X158114Y110486D01*
X158078Y110588D01*
X158034Y110697D01*
X157968Y110807D01*
X157881Y110908D01*
X157866Y110916D01*
X157830Y110945D01*
X157772Y110989D01*
X157684Y111032D01*
X157567Y111083D01*
X157429Y111120D01*
X157261Y111149D01*
X157064Y111164D01*
X154943D01*
Y111783D01*
X157312D01*
X157319D01*
X157334D01*
X157349D01*
X157378D01*
X157458Y111791D01*
X157545Y111805D01*
X157648Y111820D01*
X157750Y111849D01*
X157844Y111885D01*
X157932Y111936D01*
X157939Y111944D01*
X157968Y111966D01*
X157998Y112002D01*
X158041Y112053D01*
X158078Y112119D01*
X158114Y112206D01*
X158136Y112308D01*
X158143Y112432D01*
Y112476D01*
X158136Y112527D01*
X158129Y112585D01*
X158107Y112658D01*
X158085Y112746D01*
X158048Y112826D01*
X158005Y112913D01*
X157998Y112921D01*
X157976Y112950D01*
X157947Y112986D01*
X157903Y113037D01*
X157844Y113088D01*
X157772Y113139D01*
X157691Y113190D01*
X157597Y113234D01*
X157582Y113241D01*
X157545Y113249D01*
X157487Y113263D01*
X157407Y113285D01*
X157298Y113307D01*
X157167Y113321D01*
X157013Y113329D01*
X156838Y113336D01*
X154943D01*
Y113956D01*
X158603D01*
Y113402D01*
D02*
G37*
G36*
X159988Y107453D02*
X159281D01*
Y108073D01*
X159988D01*
Y107453D01*
D02*
G37*
G36*
X158603D02*
X154943D01*
Y108073D01*
X158603D01*
Y107453D01*
D02*
G37*
G36*
X156911Y106680D02*
X156970D01*
X157035Y106673D01*
X157108Y106666D01*
X157269Y106644D01*
X157443Y106607D01*
X157618Y106564D01*
X157793Y106498D01*
X157801D01*
X157815Y106491D01*
X157837Y106476D01*
X157866Y106462D01*
X157947Y106418D01*
X158041Y106352D01*
X158151Y106265D01*
X158260Y106163D01*
X158369Y106039D01*
X158457Y105900D01*
Y105893D01*
X158464Y105878D01*
X158479Y105857D01*
X158493Y105827D01*
X158508Y105791D01*
X158530Y105747D01*
X158573Y105638D01*
X158610Y105514D01*
X158646Y105361D01*
X158676Y105201D01*
X158683Y105025D01*
Y104967D01*
X158676Y104923D01*
Y104880D01*
X158668Y104821D01*
X158646Y104683D01*
X158610Y104530D01*
X158552Y104369D01*
X158479Y104209D01*
X158377Y104056D01*
Y104049D01*
X158362Y104041D01*
X158318Y103998D01*
X158253Y103932D01*
X158158Y103852D01*
X158041Y103772D01*
X157896Y103691D01*
X157728Y103619D01*
X157531Y103568D01*
X157436Y104173D01*
X157443D01*
X157451Y104180D01*
X157494Y104187D01*
X157560Y104209D01*
X157640Y104245D01*
X157728Y104282D01*
X157823Y104340D01*
X157910Y104406D01*
X157983Y104479D01*
X157990Y104486D01*
X158012Y104515D01*
X158041Y104566D01*
X158078Y104624D01*
X158114Y104705D01*
X158143Y104792D01*
X158165Y104894D01*
X158173Y105004D01*
Y105047D01*
X158165Y105084D01*
X158158Y105164D01*
X158129Y105273D01*
X158092Y105390D01*
X158034Y105521D01*
X157947Y105645D01*
X157896Y105703D01*
X157837Y105762D01*
X157830D01*
X157823Y105776D01*
X157801Y105791D01*
X157772Y105806D01*
X157735Y105827D01*
X157691Y105857D01*
X157640Y105878D01*
X157582Y105908D01*
X157509Y105937D01*
X157429Y105959D01*
X157341Y105988D01*
X157247Y106010D01*
X157145Y106024D01*
X157028Y106039D01*
X156904Y106053D01*
X156773D01*
X156765D01*
X156744D01*
X156700D01*
X156656Y106046D01*
X156590D01*
X156525Y106039D01*
X156365Y106017D01*
X156190Y105988D01*
X156007Y105937D01*
X155847Y105871D01*
X155767Y105827D01*
X155701Y105776D01*
X155687Y105762D01*
X155650Y105725D01*
X155599Y105660D01*
X155541Y105579D01*
X155475Y105470D01*
X155424Y105346D01*
X155388Y105201D01*
X155380Y105120D01*
X155373Y105040D01*
Y105025D01*
X155380Y104982D01*
X155388Y104909D01*
X155402Y104829D01*
X155424Y104734D01*
X155468Y104632D01*
X155519Y104530D01*
X155592Y104435D01*
X155599Y104420D01*
X155635Y104399D01*
X155687Y104355D01*
X155767Y104304D01*
X155861Y104253D01*
X155978Y104194D01*
X156124Y104151D01*
X156284Y104121D01*
X156204Y103509D01*
X156197D01*
X156175Y103516D01*
X156146Y103524D01*
X156102Y103531D01*
X156044Y103546D01*
X155985Y103560D01*
X155840Y103611D01*
X155687Y103677D01*
X155519Y103772D01*
X155359Y103888D01*
X155286Y103954D01*
X155213Y104027D01*
X155205Y104034D01*
X155198Y104049D01*
X155184Y104070D01*
X155162Y104100D01*
X155132Y104136D01*
X155103Y104187D01*
X155074Y104245D01*
X155038Y104304D01*
X154972Y104450D01*
X154921Y104624D01*
X154877Y104814D01*
X154870Y104923D01*
X154863Y105033D01*
Y105106D01*
X154870Y105157D01*
X154877Y105222D01*
X154892Y105295D01*
X154906Y105375D01*
X154921Y105463D01*
X154979Y105660D01*
X155023Y105754D01*
X155067Y105857D01*
X155125Y105959D01*
X155191Y106053D01*
X155264Y106148D01*
X155351Y106236D01*
X155359Y106243D01*
X155373Y106257D01*
X155402Y106279D01*
X155439Y106308D01*
X155490Y106338D01*
X155555Y106381D01*
X155628Y106418D01*
X155708Y106462D01*
X155803Y106505D01*
X155913Y106542D01*
X156022Y106586D01*
X156153Y106615D01*
X156284Y106644D01*
X156437Y106666D01*
X156590Y106680D01*
X156758Y106688D01*
X156765D01*
X156787D01*
X156816D01*
X156860D01*
X156911Y106680D01*
D02*
G37*
G36*
X158603Y102423D02*
X158048D01*
X158056Y102416D01*
X158107Y102386D01*
X158173Y102350D01*
X158253Y102292D01*
X158333Y102233D01*
X158420Y102168D01*
X158493Y102102D01*
X158552Y102037D01*
X158559Y102029D01*
X158573Y102007D01*
X158595Y101964D01*
X158617Y101920D01*
X158639Y101862D01*
X158661Y101789D01*
X158676Y101716D01*
X158683Y101636D01*
Y101585D01*
X158676Y101519D01*
X158661Y101439D01*
X158632Y101344D01*
X158595Y101242D01*
X158544Y101125D01*
X158479Y101001D01*
X157910Y101227D01*
X157917Y101235D01*
X157932Y101264D01*
X157954Y101308D01*
X157976Y101366D01*
X157998Y101432D01*
X158019Y101512D01*
X158034Y101592D01*
X158041Y101672D01*
Y101708D01*
X158034Y101745D01*
X158027Y101796D01*
X158012Y101847D01*
X157990Y101913D01*
X157961Y101978D01*
X157917Y102037D01*
X157910Y102044D01*
X157896Y102066D01*
X157866Y102088D01*
X157830Y102124D01*
X157779Y102161D01*
X157720Y102197D01*
X157655Y102233D01*
X157575Y102263D01*
X157560Y102270D01*
X157516Y102277D01*
X157451Y102292D01*
X157363Y102314D01*
X157254Y102336D01*
X157130Y102350D01*
X156999Y102357D01*
X156853Y102365D01*
X154943D01*
Y102984D01*
X158603D01*
Y102423D01*
D02*
G37*
G36*
X156868Y100856D02*
X156940D01*
X157021Y100848D01*
X157123Y100834D01*
X157225Y100819D01*
X157341Y100790D01*
X157458Y100761D01*
X157582Y100724D01*
X157713Y100681D01*
X157837Y100622D01*
X157954Y100564D01*
X158070Y100484D01*
X158180Y100404D01*
X158274Y100302D01*
X158282Y100294D01*
X158289Y100280D01*
X158311Y100250D01*
X158340Y100214D01*
X158369Y100170D01*
X158406Y100112D01*
X158442Y100054D01*
X158479Y99981D01*
X158515Y99901D01*
X158552Y99813D01*
X158617Y99616D01*
X158668Y99390D01*
X158676Y99274D01*
X158683Y99150D01*
Y99077D01*
X158676Y99026D01*
X158668Y98960D01*
X158654Y98887D01*
X158639Y98807D01*
X158624Y98712D01*
X158559Y98515D01*
X158522Y98413D01*
X158471Y98311D01*
X158420Y98209D01*
X158347Y98107D01*
X158274Y98013D01*
X158187Y97918D01*
X158180Y97910D01*
X158165Y97896D01*
X158136Y97874D01*
X158100Y97845D01*
X158048Y97808D01*
X157983Y97765D01*
X157910Y97721D01*
X157830Y97677D01*
X157742Y97633D01*
X157633Y97590D01*
X157524Y97546D01*
X157400Y97509D01*
X157269Y97480D01*
X157130Y97458D01*
X156984Y97444D01*
X156824Y97437D01*
X156816D01*
X156795D01*
X156758D01*
X156707D01*
X156649Y97444D01*
X156576Y97451D01*
X156503D01*
X156423Y97466D01*
X156241Y97488D01*
X156058Y97531D01*
X155876Y97582D01*
X155708Y97655D01*
X155701D01*
X155694Y97663D01*
X155672Y97677D01*
X155643Y97692D01*
X155570Y97743D01*
X155482Y97808D01*
X155380Y97896D01*
X155278Y98005D01*
X155176Y98129D01*
X155081Y98275D01*
Y98282D01*
X155074Y98290D01*
X155060Y98311D01*
X155045Y98348D01*
X155031Y98384D01*
X155016Y98428D01*
X154972Y98537D01*
X154936Y98661D01*
X154899Y98814D01*
X154870Y98975D01*
X154863Y99150D01*
Y99223D01*
X154870Y99281D01*
X154877Y99347D01*
X154892Y99419D01*
X154906Y99507D01*
X154921Y99594D01*
X154979Y99791D01*
X155023Y99901D01*
X155067Y100003D01*
X155125Y100105D01*
X155191Y100207D01*
X155264Y100302D01*
X155351Y100396D01*
X155359Y100404D01*
X155373Y100418D01*
X155402Y100440D01*
X155446Y100469D01*
X155497Y100506D01*
X155555Y100542D01*
X155628Y100586D01*
X155716Y100630D01*
X155810Y100673D01*
X155920Y100717D01*
X156036Y100753D01*
X156160Y100790D01*
X156299Y100819D01*
X156445Y100841D01*
X156605Y100856D01*
X156773Y100863D01*
X156787D01*
X156816D01*
X156868Y100856D01*
D02*
G37*
G36*
X158603Y96146D02*
X158121D01*
X158136Y96139D01*
X158165Y96110D01*
X158216Y96073D01*
X158274Y96015D01*
X158347Y95949D01*
X158413Y95876D01*
X158479Y95789D01*
X158537Y95702D01*
X158544Y95687D01*
X158559Y95658D01*
X158581Y95600D01*
X158610Y95527D01*
X158639Y95439D01*
X158661Y95337D01*
X158676Y95220D01*
X158683Y95089D01*
Y95009D01*
X158676Y94973D01*
X158668Y94922D01*
X158654Y94812D01*
X158624Y94681D01*
X158581Y94542D01*
X158515Y94404D01*
X158435Y94265D01*
Y94258D01*
X158420Y94251D01*
X158391Y94207D01*
X158333Y94142D01*
X158260Y94061D01*
X158165Y93974D01*
X158048Y93886D01*
X157910Y93799D01*
X157757Y93726D01*
X157750D01*
X157735Y93719D01*
X157713Y93711D01*
X157684Y93697D01*
X157640Y93682D01*
X157589Y93668D01*
X157473Y93631D01*
X157327Y93595D01*
X157167Y93566D01*
X156984Y93544D01*
X156795Y93537D01*
X156787D01*
X156773D01*
X156744D01*
X156700D01*
X156649Y93544D01*
X156590D01*
X156459Y93558D01*
X156299Y93587D01*
X156131Y93624D01*
X155956Y93675D01*
X155781Y93741D01*
X155774D01*
X155760Y93748D01*
X155738Y93762D01*
X155708Y93777D01*
X155628Y93828D01*
X155526Y93894D01*
X155417Y93974D01*
X155307Y94076D01*
X155198Y94193D01*
X155096Y94331D01*
Y94338D01*
X155089Y94346D01*
X155074Y94367D01*
X155060Y94397D01*
X155023Y94470D01*
X154979Y94572D01*
X154936Y94696D01*
X154899Y94827D01*
X154870Y94980D01*
X154863Y95133D01*
Y95184D01*
X154870Y95242D01*
X154877Y95315D01*
X154892Y95403D01*
X154914Y95498D01*
X154943Y95592D01*
X154987Y95687D01*
X154994Y95694D01*
X155009Y95731D01*
X155038Y95775D01*
X155081Y95833D01*
X155125Y95891D01*
X155184Y95964D01*
X155249Y96030D01*
X155322Y96088D01*
X153543D01*
Y96708D01*
X158603D01*
Y96146D01*
D02*
G37*
G36*
X159988Y92166D02*
X158180D01*
X158187Y92159D01*
X158202Y92144D01*
X158223Y92122D01*
X158260Y92086D01*
X158296Y92049D01*
X158340Y91998D01*
X158384Y91933D01*
X158435Y91867D01*
X158479Y91794D01*
X158522Y91714D01*
X158603Y91524D01*
X158639Y91422D01*
X158661Y91313D01*
X158676Y91196D01*
X158683Y91080D01*
Y91014D01*
X158676Y90934D01*
X158661Y90839D01*
X158646Y90730D01*
X158617Y90613D01*
X158573Y90496D01*
X158522Y90380D01*
X158515Y90365D01*
X158493Y90329D01*
X158457Y90278D01*
X158406Y90212D01*
X158340Y90147D01*
X158267Y90074D01*
X158180Y90008D01*
X158078Y89950D01*
X158063Y89943D01*
X158027Y89928D01*
X157961Y89906D01*
X157866Y89884D01*
X157750Y89862D01*
X157611Y89840D01*
X157443Y89826D01*
X157254Y89819D01*
X154943D01*
Y90438D01*
X157261D01*
X157269D01*
X157283D01*
X157305D01*
X157334D01*
X157414Y90446D01*
X157516Y90460D01*
X157626Y90489D01*
X157735Y90526D01*
X157844Y90577D01*
X157932Y90642D01*
X157939Y90650D01*
X157968Y90679D01*
X158005Y90723D01*
X158041Y90788D01*
X158085Y90868D01*
X158114Y90963D01*
X158143Y91080D01*
X158151Y91211D01*
Y91255D01*
X158143Y91306D01*
X158136Y91379D01*
X158114Y91452D01*
X158092Y91539D01*
X158056Y91627D01*
X158005Y91721D01*
X157998Y91729D01*
X157976Y91758D01*
X157947Y91801D01*
X157903Y91852D01*
X157844Y91911D01*
X157779Y91969D01*
X157699Y92020D01*
X157611Y92064D01*
X157597Y92071D01*
X157567Y92078D01*
X157509Y92093D01*
X157436Y92115D01*
X157341Y92137D01*
X157225Y92151D01*
X157094Y92159D01*
X156940Y92166D01*
X154943D01*
Y92786D01*
X159988D01*
Y92166D01*
D02*
G37*
G36*
X156868Y89090D02*
X156940D01*
X157021Y89082D01*
X157123Y89068D01*
X157225Y89053D01*
X157341Y89024D01*
X157458Y88995D01*
X157582Y88958D01*
X157713Y88915D01*
X157837Y88856D01*
X157954Y88798D01*
X158070Y88718D01*
X158180Y88638D01*
X158274Y88535D01*
X158282Y88528D01*
X158289Y88514D01*
X158311Y88485D01*
X158340Y88448D01*
X158369Y88404D01*
X158406Y88346D01*
X158442Y88288D01*
X158479Y88215D01*
X158515Y88135D01*
X158552Y88047D01*
X158617Y87850D01*
X158668Y87624D01*
X158676Y87508D01*
X158683Y87384D01*
Y87311D01*
X158676Y87260D01*
X158668Y87194D01*
X158654Y87121D01*
X158639Y87041D01*
X158624Y86946D01*
X158559Y86750D01*
X158522Y86647D01*
X158471Y86545D01*
X158420Y86443D01*
X158347Y86341D01*
X158274Y86247D01*
X158187Y86152D01*
X158180Y86144D01*
X158165Y86130D01*
X158136Y86108D01*
X158100Y86079D01*
X158048Y86042D01*
X157983Y85999D01*
X157910Y85955D01*
X157830Y85911D01*
X157742Y85867D01*
X157633Y85824D01*
X157524Y85780D01*
X157400Y85743D01*
X157269Y85714D01*
X157130Y85692D01*
X156984Y85678D01*
X156824Y85671D01*
X156816D01*
X156795D01*
X156758D01*
X156707D01*
X156649Y85678D01*
X156576Y85685D01*
X156503D01*
X156423Y85700D01*
X156241Y85722D01*
X156058Y85765D01*
X155876Y85816D01*
X155708Y85889D01*
X155701D01*
X155694Y85896D01*
X155672Y85911D01*
X155643Y85926D01*
X155570Y85977D01*
X155482Y86042D01*
X155380Y86130D01*
X155278Y86239D01*
X155176Y86363D01*
X155081Y86509D01*
Y86516D01*
X155074Y86523D01*
X155060Y86545D01*
X155045Y86582D01*
X155031Y86618D01*
X155016Y86662D01*
X154972Y86771D01*
X154936Y86895D01*
X154899Y87048D01*
X154870Y87209D01*
X154863Y87384D01*
Y87457D01*
X154870Y87515D01*
X154877Y87581D01*
X154892Y87653D01*
X154906Y87741D01*
X154921Y87828D01*
X154979Y88025D01*
X155023Y88135D01*
X155067Y88237D01*
X155125Y88339D01*
X155191Y88441D01*
X155264Y88535D01*
X155351Y88630D01*
X155359Y88638D01*
X155373Y88652D01*
X155402Y88674D01*
X155446Y88703D01*
X155497Y88740D01*
X155555Y88776D01*
X155628Y88820D01*
X155716Y88864D01*
X155810Y88907D01*
X155920Y88951D01*
X156036Y88987D01*
X156160Y89024D01*
X156299Y89053D01*
X156445Y89075D01*
X156605Y89090D01*
X156773Y89097D01*
X156787D01*
X156816D01*
X156868Y89090D01*
D02*
G37*
G36*
X158603Y84387D02*
X158078D01*
X158085Y84380D01*
X158107Y84366D01*
X158136Y84344D01*
X158173Y84315D01*
X158216Y84271D01*
X158267Y84220D01*
X158326Y84162D01*
X158384Y84089D01*
X158435Y84016D01*
X158493Y83928D01*
X158544Y83833D01*
X158588Y83731D01*
X158624Y83615D01*
X158654Y83498D01*
X158676Y83367D01*
X158683Y83228D01*
Y83170D01*
X158676Y83112D01*
X158668Y83032D01*
X158654Y82937D01*
X158632Y82835D01*
X158603Y82725D01*
X158559Y82623D01*
X158552Y82609D01*
X158537Y82580D01*
X158515Y82529D01*
X158479Y82470D01*
X158435Y82397D01*
X158377Y82332D01*
X158318Y82266D01*
X158245Y82208D01*
X158238Y82200D01*
X158209Y82186D01*
X158173Y82164D01*
X158121Y82128D01*
X158048Y82098D01*
X157976Y82069D01*
X157888Y82033D01*
X157793Y82011D01*
X157786D01*
X157757Y82004D01*
X157713Y81996D01*
X157655Y81989D01*
X157567D01*
X157465Y81982D01*
X157341Y81975D01*
X157188D01*
X154943D01*
Y82594D01*
X157159D01*
X157167D01*
X157174D01*
X157225D01*
X157290D01*
X157371Y82601D01*
X157465Y82609D01*
X157560Y82623D01*
X157648Y82645D01*
X157728Y82667D01*
X157735D01*
X157757Y82682D01*
X157793Y82704D01*
X157837Y82725D01*
X157881Y82762D01*
X157932Y82806D01*
X157983Y82864D01*
X158027Y82929D01*
X158034Y82937D01*
X158048Y82959D01*
X158063Y83002D01*
X158085Y83053D01*
X158107Y83112D01*
X158129Y83185D01*
X158136Y83272D01*
X158143Y83360D01*
Y83396D01*
X158136Y83425D01*
X158129Y83498D01*
X158114Y83593D01*
X158078Y83695D01*
X158034Y83812D01*
X157976Y83928D01*
X157888Y84038D01*
X157874Y84052D01*
X157837Y84081D01*
X157808Y84103D01*
X157772Y84125D01*
X157728Y84154D01*
X157677Y84176D01*
X157618Y84205D01*
X157545Y84234D01*
X157465Y84256D01*
X157378Y84278D01*
X157283Y84293D01*
X157181Y84307D01*
X157057Y84322D01*
X156933D01*
X154943D01*
Y84942D01*
X158603D01*
Y84387D01*
D02*
G37*
G36*
X156889Y81224D02*
X156970Y81216D01*
X157057Y81209D01*
X157159Y81195D01*
X157261Y81173D01*
X157494Y81114D01*
X157611Y81078D01*
X157735Y81034D01*
X157852Y80976D01*
X157961Y80910D01*
X158070Y80837D01*
X158173Y80757D01*
X158180Y80750D01*
X158194Y80735D01*
X158216Y80706D01*
X158253Y80670D01*
X158289Y80626D01*
X158333Y80568D01*
X158384Y80502D01*
X158428Y80422D01*
X158479Y80342D01*
X158522Y80247D01*
X158566Y80145D01*
X158603Y80035D01*
X158639Y79919D01*
X158661Y79795D01*
X158676Y79664D01*
X158683Y79525D01*
Y79452D01*
X158676Y79401D01*
X158668Y79343D01*
X158654Y79270D01*
X158639Y79190D01*
X158617Y79095D01*
X158595Y79008D01*
X158559Y78905D01*
X158522Y78811D01*
X158471Y78709D01*
X158413Y78606D01*
X158347Y78505D01*
X158267Y78410D01*
X158180Y78322D01*
X158173Y78315D01*
X158158Y78300D01*
X158129Y78278D01*
X158085Y78249D01*
X158034Y78213D01*
X157976Y78176D01*
X157903Y78133D01*
X157815Y78089D01*
X157720Y78045D01*
X157618Y78001D01*
X157502Y77965D01*
X157378Y77929D01*
X157239Y77899D01*
X157094Y77877D01*
X156940Y77863D01*
X156773Y77856D01*
X156765D01*
X156736D01*
X156685D01*
X156612Y77863D01*
Y80597D01*
X156605D01*
X156583D01*
X156554Y80589D01*
X156510D01*
X156459Y80582D01*
X156401Y80568D01*
X156270Y80546D01*
X156124Y80502D01*
X155964Y80444D01*
X155818Y80363D01*
X155687Y80261D01*
Y80254D01*
X155672Y80247D01*
X155635Y80203D01*
X155585Y80137D01*
X155534Y80050D01*
X155475Y79933D01*
X155424Y79802D01*
X155388Y79656D01*
X155380Y79576D01*
X155373Y79489D01*
Y79430D01*
X155380Y79365D01*
X155395Y79285D01*
X155417Y79197D01*
X155446Y79095D01*
X155490Y79000D01*
X155548Y78905D01*
X155555Y78898D01*
X155585Y78862D01*
X155628Y78818D01*
X155687Y78767D01*
X155767Y78709D01*
X155869Y78643D01*
X155985Y78577D01*
X156124Y78519D01*
X156044Y77877D01*
X156036D01*
X156022Y77885D01*
X155993Y77892D01*
X155949Y77907D01*
X155905Y77929D01*
X155847Y77950D01*
X155723Y78009D01*
X155585Y78082D01*
X155439Y78184D01*
X155300Y78300D01*
X155169Y78446D01*
Y78453D01*
X155154Y78468D01*
X155140Y78490D01*
X155118Y78519D01*
X155096Y78563D01*
X155074Y78606D01*
X155045Y78665D01*
X155016Y78730D01*
X154987Y78803D01*
X154958Y78876D01*
X154914Y79058D01*
X154877Y79263D01*
X154863Y79489D01*
Y79569D01*
X154870Y79620D01*
X154877Y79685D01*
X154892Y79766D01*
X154906Y79853D01*
X154921Y79948D01*
X154979Y80152D01*
X155023Y80261D01*
X155067Y80363D01*
X155125Y80473D01*
X155191Y80575D01*
X155264Y80670D01*
X155351Y80764D01*
X155359Y80772D01*
X155373Y80786D01*
X155402Y80808D01*
X155446Y80837D01*
X155497Y80874D01*
X155555Y80910D01*
X155628Y80954D01*
X155708Y80998D01*
X155803Y81041D01*
X155905Y81085D01*
X156022Y81122D01*
X156146Y81158D01*
X156277Y81187D01*
X156423Y81209D01*
X156576Y81224D01*
X156736Y81231D01*
X156744D01*
X156780D01*
X156824D01*
X156889Y81224D01*
D02*
G37*
G36*
X11947Y49567D02*
X13602Y47323D01*
X12941D01*
X11598Y49229D01*
X10981Y48634D01*
Y47323D01*
X10479D01*
Y51102D01*
X10981D01*
Y49224D01*
X12848Y51102D01*
X13531D01*
X11947Y49567D01*
D02*
G37*
G36*
X9687Y47323D02*
X9206D01*
Y50485D01*
X8104Y47323D01*
X7656D01*
X6564Y50539D01*
Y47323D01*
X6083D01*
Y51102D01*
X6831D01*
X7727Y48421D01*
Y48415D01*
X7732Y48404D01*
X7738Y48388D01*
X7749Y48361D01*
X7770Y48295D01*
X7798Y48213D01*
X7825Y48121D01*
X7858Y48028D01*
X7885Y47940D01*
X7907Y47864D01*
X7912Y47875D01*
X7918Y47902D01*
X7934Y47951D01*
X7956Y48017D01*
X7983Y48104D01*
X8022Y48208D01*
X8060Y48328D01*
X8109Y48470D01*
X9015Y51102D01*
X9687D01*
Y47323D01*
D02*
G37*
G36*
X97942Y84384D02*
Y84378D01*
Y84356D01*
Y84329D01*
Y84291D01*
X97936Y84242D01*
Y84187D01*
X97931Y84122D01*
X97925Y84056D01*
X97909Y83909D01*
X97887Y83756D01*
X97854Y83608D01*
X97833Y83537D01*
X97811Y83472D01*
Y83466D01*
X97805Y83455D01*
X97794Y83439D01*
X97783Y83417D01*
X97751Y83357D01*
X97702Y83281D01*
X97636Y83193D01*
X97560Y83106D01*
X97461Y83013D01*
X97341Y82931D01*
X97336D01*
X97325Y82920D01*
X97308Y82915D01*
X97281Y82898D01*
X97248Y82882D01*
X97205Y82866D01*
X97161Y82849D01*
X97106Y82828D01*
X97046Y82806D01*
X96981Y82789D01*
X96910Y82773D01*
X96828Y82757D01*
X96746Y82746D01*
X96659Y82735D01*
X96462Y82724D01*
X96413D01*
X96375Y82729D01*
X96331D01*
X96276Y82735D01*
X96216Y82740D01*
X96156Y82746D01*
X96020Y82767D01*
X95872Y82800D01*
X95731Y82844D01*
X95594Y82904D01*
X95588D01*
X95578Y82915D01*
X95561Y82926D01*
X95539Y82937D01*
X95479Y82980D01*
X95408Y83040D01*
X95327Y83117D01*
X95250Y83204D01*
X95174Y83313D01*
X95113Y83434D01*
Y83439D01*
X95108Y83450D01*
X95103Y83472D01*
X95092Y83499D01*
X95081Y83532D01*
X95070Y83575D01*
X95053Y83625D01*
X95043Y83685D01*
X95032Y83750D01*
X95015Y83821D01*
X95004Y83898D01*
X94993Y83979D01*
X94982Y84072D01*
X94977Y84171D01*
X94972Y84274D01*
Y84384D01*
Y86568D01*
X95474D01*
Y84384D01*
Y84378D01*
Y84362D01*
Y84334D01*
Y84302D01*
X95479Y84263D01*
Y84214D01*
X95485Y84111D01*
X95496Y83991D01*
X95512Y83870D01*
X95534Y83756D01*
X95545Y83707D01*
X95561Y83657D01*
X95567Y83647D01*
X95578Y83619D01*
X95605Y83581D01*
X95638Y83526D01*
X95676Y83472D01*
X95731Y83412D01*
X95796Y83352D01*
X95872Y83302D01*
X95883Y83297D01*
X95911Y83281D01*
X95960Y83264D01*
X96025Y83242D01*
X96102Y83215D01*
X96200Y83199D01*
X96304Y83182D01*
X96418Y83177D01*
X96473D01*
X96506Y83182D01*
X96555D01*
X96604Y83188D01*
X96724Y83210D01*
X96855Y83237D01*
X96981Y83281D01*
X97101Y83341D01*
X97156Y83379D01*
X97205Y83423D01*
X97210Y83428D01*
X97216Y83434D01*
X97227Y83450D01*
X97243Y83472D01*
X97259Y83504D01*
X97281Y83537D01*
X97303Y83586D01*
X97325Y83636D01*
X97347Y83696D01*
X97363Y83767D01*
X97385Y83849D01*
X97401Y83936D01*
X97418Y84034D01*
X97429Y84138D01*
X97439Y84258D01*
Y84384D01*
Y86568D01*
X97942D01*
Y84384D01*
D02*
G37*
G36*
X62845Y121384D02*
Y121378D01*
Y121362D01*
Y121340D01*
Y121307D01*
X62839Y121264D01*
Y121220D01*
X62828Y121116D01*
X62817Y120996D01*
X62796Y120871D01*
X62763Y120756D01*
X62725Y120647D01*
Y120641D01*
X62719Y120636D01*
X62703Y120603D01*
X62675Y120559D01*
X62637Y120499D01*
X62583Y120439D01*
X62523Y120374D01*
X62446Y120308D01*
X62359Y120254D01*
X62348Y120248D01*
X62315Y120232D01*
X62266Y120210D01*
X62195Y120188D01*
X62108Y120161D01*
X62009Y120139D01*
X61900Y120123D01*
X61780Y120117D01*
X61731D01*
X61698Y120123D01*
X61654Y120128D01*
X61611Y120133D01*
X61496Y120155D01*
X61376Y120188D01*
X61250Y120237D01*
X61185Y120270D01*
X61125Y120308D01*
X61070Y120352D01*
X61016Y120401D01*
X61010Y120406D01*
X61005Y120412D01*
X60994Y120434D01*
X60977Y120456D01*
X60956Y120483D01*
X60934Y120521D01*
X60912Y120565D01*
X60885Y120614D01*
X60863Y120669D01*
X60841Y120734D01*
X60819Y120800D01*
X60797Y120876D01*
X60786Y120958D01*
X60770Y121051D01*
X60764Y121144D01*
Y121247D01*
X61218Y121313D01*
Y121307D01*
Y121297D01*
Y121275D01*
X61223Y121242D01*
X61229Y121209D01*
Y121171D01*
X61245Y121078D01*
X61261Y120980D01*
X61294Y120881D01*
X61327Y120794D01*
X61349Y120756D01*
X61376Y120723D01*
X61381Y120718D01*
X61403Y120701D01*
X61436Y120674D01*
X61480Y120647D01*
X61540Y120614D01*
X61605Y120592D01*
X61687Y120570D01*
X61774Y120565D01*
X61807D01*
X61840Y120570D01*
X61889Y120576D01*
X61938Y120587D01*
X61993Y120598D01*
X62048Y120619D01*
X62102Y120647D01*
X62108Y120652D01*
X62124Y120663D01*
X62146Y120685D01*
X62179Y120707D01*
X62206Y120745D01*
X62239Y120783D01*
X62266Y120827D01*
X62288Y120881D01*
Y120887D01*
X62299Y120909D01*
X62304Y120947D01*
X62315Y120996D01*
X62326Y121062D01*
X62331Y121144D01*
X62342Y121242D01*
Y121356D01*
Y123961D01*
X62845D01*
Y121384D01*
D02*
G37*
G36*
X65220Y120183D02*
X64756D01*
Y123136D01*
X64750Y123131D01*
X64723Y123109D01*
X64690Y123076D01*
X64636Y123038D01*
X64575Y122989D01*
X64499Y122934D01*
X64412Y122874D01*
X64314Y122814D01*
X64308D01*
X64302Y122809D01*
X64270Y122787D01*
X64215Y122760D01*
X64150Y122727D01*
X64073Y122689D01*
X63991Y122651D01*
X63909Y122612D01*
X63828Y122580D01*
Y123027D01*
X63833D01*
X63844Y123038D01*
X63866Y123044D01*
X63893Y123060D01*
X63926Y123076D01*
X63964Y123098D01*
X64057Y123153D01*
X64166Y123213D01*
X64275Y123289D01*
X64390Y123377D01*
X64504Y123470D01*
X64510Y123475D01*
X64516Y123480D01*
X64532Y123497D01*
X64554Y123513D01*
X64603Y123568D01*
X64668Y123633D01*
X64734Y123710D01*
X64805Y123797D01*
X64865Y123884D01*
X64920Y123977D01*
X65220D01*
Y120183D01*
D02*
G37*
G36*
X92481Y114097D02*
X92525Y114091D01*
X92580Y114086D01*
X92640Y114075D01*
X92700Y114064D01*
X92842Y114026D01*
X92984Y113971D01*
X93055Y113938D01*
X93126Y113900D01*
X93191Y113851D01*
X93251Y113796D01*
X93257Y113791D01*
X93268Y113785D01*
X93278Y113764D01*
X93300Y113742D01*
X93328Y113714D01*
X93355Y113676D01*
X93382Y113638D01*
X93415Y113589D01*
X93470Y113485D01*
X93524Y113354D01*
X93546Y113288D01*
X93557Y113212D01*
X93568Y113136D01*
X93573Y113054D01*
Y113043D01*
Y113015D01*
X93568Y112972D01*
X93562Y112912D01*
X93551Y112846D01*
X93530Y112770D01*
X93508Y112688D01*
X93475Y112606D01*
X93470Y112595D01*
X93459Y112568D01*
X93437Y112524D01*
X93404Y112464D01*
X93360Y112399D01*
X93306Y112317D01*
X93240Y112235D01*
X93164Y112142D01*
X93153Y112131D01*
X93126Y112098D01*
X93098Y112071D01*
X93071Y112044D01*
X93038Y112011D01*
X92994Y111967D01*
X92951Y111924D01*
X92896Y111874D01*
X92842Y111820D01*
X92776Y111760D01*
X92705Y111700D01*
X92629Y111629D01*
X92541Y111558D01*
X92454Y111481D01*
X92449Y111476D01*
X92438Y111465D01*
X92416Y111449D01*
X92388Y111427D01*
X92356Y111394D01*
X92317Y111361D01*
X92230Y111290D01*
X92137Y111208D01*
X92050Y111126D01*
X91974Y111055D01*
X91941Y111028D01*
X91913Y111001D01*
X91908Y110995D01*
X91892Y110979D01*
X91870Y110957D01*
X91843Y110924D01*
X91815Y110886D01*
X91782Y110848D01*
X91717Y110755D01*
X93579D01*
Y110307D01*
X91073D01*
Y110313D01*
Y110335D01*
Y110367D01*
X91078Y110411D01*
X91084Y110460D01*
X91094Y110515D01*
X91105Y110570D01*
X91127Y110629D01*
Y110635D01*
X91133Y110640D01*
X91144Y110673D01*
X91165Y110722D01*
X91198Y110788D01*
X91242Y110864D01*
X91296Y110952D01*
X91356Y111039D01*
X91433Y111132D01*
Y111137D01*
X91444Y111143D01*
X91471Y111176D01*
X91520Y111225D01*
X91591Y111296D01*
X91673Y111378D01*
X91777Y111476D01*
X91903Y111585D01*
X92039Y111700D01*
X92045Y111705D01*
X92066Y111722D01*
X92099Y111749D01*
X92137Y111782D01*
X92186Y111825D01*
X92247Y111874D01*
X92307Y111929D01*
X92378Y111989D01*
X92514Y112120D01*
X92651Y112251D01*
X92716Y112317D01*
X92776Y112382D01*
X92831Y112442D01*
X92874Y112502D01*
Y112508D01*
X92885Y112513D01*
X92896Y112530D01*
X92907Y112551D01*
X92945Y112611D01*
X92989Y112682D01*
X93027Y112770D01*
X93066Y112863D01*
X93087Y112966D01*
X93098Y113065D01*
Y113070D01*
Y113076D01*
X93093Y113108D01*
X93087Y113163D01*
X93071Y113223D01*
X93049Y113300D01*
X93011Y113376D01*
X92962Y113452D01*
X92896Y113529D01*
X92885Y113540D01*
X92858Y113561D01*
X92820Y113589D01*
X92760Y113627D01*
X92683Y113660D01*
X92596Y113693D01*
X92492Y113714D01*
X92378Y113720D01*
X92345D01*
X92323Y113714D01*
X92257Y113709D01*
X92181Y113693D01*
X92099Y113671D01*
X92006Y113633D01*
X91919Y113583D01*
X91837Y113518D01*
X91826Y113507D01*
X91804Y113480D01*
X91772Y113436D01*
X91739Y113370D01*
X91701Y113294D01*
X91668Y113196D01*
X91646Y113086D01*
X91635Y112961D01*
X91160Y113010D01*
Y113015D01*
X91165Y113032D01*
Y113059D01*
X91171Y113097D01*
X91182Y113141D01*
X91193Y113190D01*
X91209Y113250D01*
X91225Y113310D01*
X91269Y113441D01*
X91335Y113573D01*
X91373Y113638D01*
X91422Y113704D01*
X91471Y113764D01*
X91526Y113818D01*
X91531Y113824D01*
X91542Y113829D01*
X91559Y113846D01*
X91586Y113862D01*
X91619Y113884D01*
X91657Y113906D01*
X91701Y113933D01*
X91755Y113960D01*
X91815Y113987D01*
X91881Y114015D01*
X91952Y114037D01*
X92028Y114058D01*
X92110Y114075D01*
X92197Y114091D01*
X92290Y114097D01*
X92388Y114102D01*
X92443D01*
X92481Y114097D01*
D02*
G37*
G36*
X89320Y114080D02*
X89369D01*
X89484Y114075D01*
X89604Y114058D01*
X89735Y114042D01*
X89855Y114015D01*
X89915Y113998D01*
X89964Y113982D01*
X89970D01*
X89975Y113977D01*
X90008Y113960D01*
X90057Y113938D01*
X90117Y113900D01*
X90183Y113851D01*
X90254Y113785D01*
X90319Y113709D01*
X90385Y113622D01*
Y113616D01*
X90390Y113611D01*
X90412Y113578D01*
X90434Y113523D01*
X90466Y113452D01*
X90494Y113370D01*
X90521Y113272D01*
X90538Y113168D01*
X90543Y113054D01*
Y113048D01*
Y113037D01*
Y113015D01*
X90538Y112988D01*
Y112950D01*
X90532Y112912D01*
X90510Y112819D01*
X90478Y112710D01*
X90434Y112595D01*
X90368Y112480D01*
X90325Y112426D01*
X90281Y112371D01*
X90276Y112366D01*
X90270Y112360D01*
X90254Y112344D01*
X90232Y112328D01*
X90205Y112306D01*
X90172Y112284D01*
X90128Y112257D01*
X90084Y112224D01*
X90030Y112197D01*
X89970Y112169D01*
X89904Y112136D01*
X89833Y112109D01*
X89751Y112087D01*
X89669Y112060D01*
X89577Y112044D01*
X89478Y112027D01*
X89489Y112022D01*
X89511Y112011D01*
X89544Y111989D01*
X89587Y111967D01*
X89686Y111907D01*
X89735Y111869D01*
X89779Y111836D01*
X89789Y111825D01*
X89817Y111798D01*
X89860Y111754D01*
X89915Y111700D01*
X89975Y111623D01*
X90046Y111541D01*
X90117Y111443D01*
X90194Y111334D01*
X90843Y110307D01*
X90221D01*
X89724Y111094D01*
Y111099D01*
X89713Y111110D01*
X89702Y111126D01*
X89686Y111148D01*
X89648Y111208D01*
X89598Y111285D01*
X89538Y111367D01*
X89478Y111454D01*
X89418Y111536D01*
X89364Y111612D01*
X89358Y111618D01*
X89342Y111640D01*
X89315Y111672D01*
X89276Y111711D01*
X89194Y111793D01*
X89151Y111831D01*
X89107Y111864D01*
X89101Y111869D01*
X89091Y111874D01*
X89069Y111885D01*
X89036Y111902D01*
X89003Y111918D01*
X88965Y111934D01*
X88878Y111962D01*
X88872D01*
X88861Y111967D01*
X88840D01*
X88812Y111973D01*
X88774Y111978D01*
X88730D01*
X88670Y111984D01*
X88026D01*
Y110307D01*
X87524D01*
Y114086D01*
X89276D01*
X89320Y114080D01*
D02*
G37*
G36*
X63505Y74874D02*
X63041D01*
Y77828D01*
X63036Y77823D01*
X63008Y77801D01*
X62975Y77768D01*
X62921Y77730D01*
X62861Y77681D01*
X62784Y77626D01*
X62697Y77566D01*
X62599Y77506D01*
X62593D01*
X62588Y77501D01*
X62555Y77479D01*
X62500Y77451D01*
X62435Y77419D01*
X62358Y77380D01*
X62277Y77342D01*
X62195Y77304D01*
X62113Y77271D01*
Y77719D01*
X62118D01*
X62129Y77730D01*
X62151Y77735D01*
X62178Y77752D01*
X62211Y77768D01*
X62249Y77790D01*
X62342Y77845D01*
X62451Y77905D01*
X62560Y77981D01*
X62675Y78068D01*
X62790Y78161D01*
X62795Y78167D01*
X62801Y78172D01*
X62817Y78189D01*
X62839Y78205D01*
X62888Y78259D01*
X62954Y78325D01*
X63019Y78401D01*
X63090Y78489D01*
X63150Y78576D01*
X63205Y78669D01*
X63505D01*
Y74874D01*
D02*
G37*
G36*
X59689Y78647D02*
X59798Y78642D01*
X59907Y78631D01*
X60016Y78614D01*
X60109Y78598D01*
X60114D01*
X60125Y78593D01*
X60142D01*
X60163Y78582D01*
X60224Y78565D01*
X60300Y78538D01*
X60387Y78500D01*
X60480Y78451D01*
X60573Y78396D01*
X60660Y78325D01*
X60666Y78320D01*
X60671Y78314D01*
X60688Y78298D01*
X60710Y78281D01*
X60764Y78227D01*
X60830Y78150D01*
X60901Y78057D01*
X60977Y77948D01*
X61048Y77823D01*
X61108Y77681D01*
Y77675D01*
X61114Y77664D01*
X61124Y77643D01*
X61130Y77610D01*
X61146Y77571D01*
X61157Y77528D01*
X61168Y77479D01*
X61185Y77419D01*
X61201Y77359D01*
X61212Y77288D01*
X61239Y77135D01*
X61256Y76965D01*
X61261Y76780D01*
Y76774D01*
Y76763D01*
Y76736D01*
Y76709D01*
X61256Y76671D01*
Y76627D01*
X61250Y76523D01*
X61234Y76403D01*
X61217Y76278D01*
X61190Y76147D01*
X61157Y76015D01*
Y76010D01*
X61152Y75999D01*
X61146Y75983D01*
X61141Y75961D01*
X61119Y75901D01*
X61086Y75824D01*
X61054Y75737D01*
X61010Y75650D01*
X60955Y75557D01*
X60901Y75469D01*
X60895Y75459D01*
X60873Y75431D01*
X60840Y75393D01*
X60797Y75344D01*
X60748Y75289D01*
X60688Y75235D01*
X60628Y75175D01*
X60557Y75125D01*
X60546Y75120D01*
X60524Y75104D01*
X60486Y75082D01*
X60431Y75055D01*
X60365Y75022D01*
X60289Y74994D01*
X60202Y74962D01*
X60103Y74934D01*
X60093D01*
X60076Y74929D01*
X60060Y74923D01*
X60005Y74918D01*
X59929Y74907D01*
X59841Y74896D01*
X59738Y74885D01*
X59623Y74880D01*
X59497Y74874D01*
X58138D01*
Y78653D01*
X59590D01*
X59689Y78647D01*
D02*
G37*
G36*
X57537Y78205D02*
X55402Y75590D01*
X55178Y75322D01*
X57597D01*
Y74874D01*
X54605D01*
Y75338D01*
X56543Y77752D01*
Y77757D01*
X56554Y77763D01*
X56582Y77795D01*
X56620Y77845D01*
X56669Y77905D01*
X56729Y77976D01*
X56795Y78052D01*
X56866Y78128D01*
X56937Y78205D01*
X54824D01*
Y78653D01*
X57537D01*
Y78205D01*
D02*
G37*
G36*
X34177Y59126D02*
X33713D01*
Y62080D01*
X33707Y62075D01*
X33680Y62053D01*
X33647Y62020D01*
X33593Y61982D01*
X33533Y61933D01*
X33456Y61878D01*
X33369Y61818D01*
X33271Y61758D01*
X33265D01*
X33260Y61752D01*
X33227Y61731D01*
X33172Y61703D01*
X33107Y61671D01*
X33030Y61632D01*
X32948Y61594D01*
X32866Y61556D01*
X32785Y61523D01*
Y61971D01*
X32790D01*
X32801Y61982D01*
X32823Y61987D01*
X32850Y62004D01*
X32883Y62020D01*
X32921Y62042D01*
X33014Y62097D01*
X33123Y62157D01*
X33232Y62233D01*
X33347Y62320D01*
X33462Y62413D01*
X33467Y62419D01*
X33473Y62424D01*
X33489Y62441D01*
X33511Y62457D01*
X33560Y62511D01*
X33626Y62577D01*
X33691Y62653D01*
X33762Y62741D01*
X33822Y62828D01*
X33877Y62921D01*
X34177D01*
Y59126D01*
D02*
G37*
G36*
X30612Y62899D02*
X30661D01*
X30775Y62894D01*
X30896Y62877D01*
X31027Y62861D01*
X31147Y62834D01*
X31207Y62817D01*
X31256Y62801D01*
X31261D01*
X31267Y62795D01*
X31299Y62779D01*
X31349Y62757D01*
X31409Y62719D01*
X31474Y62670D01*
X31545Y62604D01*
X31611Y62528D01*
X31676Y62441D01*
Y62435D01*
X31682Y62430D01*
X31703Y62397D01*
X31725Y62342D01*
X31758Y62271D01*
X31785Y62189D01*
X31813Y62091D01*
X31829Y61987D01*
X31835Y61873D01*
Y61867D01*
Y61856D01*
Y61834D01*
X31829Y61807D01*
Y61769D01*
X31824Y61731D01*
X31802Y61638D01*
X31769Y61529D01*
X31725Y61414D01*
X31660Y61299D01*
X31616Y61245D01*
X31572Y61190D01*
X31567Y61185D01*
X31562Y61179D01*
X31545Y61163D01*
X31523Y61146D01*
X31496Y61125D01*
X31463Y61103D01*
X31420Y61076D01*
X31376Y61043D01*
X31321Y61015D01*
X31261Y60988D01*
X31196Y60955D01*
X31125Y60928D01*
X31043Y60906D01*
X30961Y60879D01*
X30868Y60862D01*
X30770Y60846D01*
X30781Y60841D01*
X30803Y60830D01*
X30835Y60808D01*
X30879Y60786D01*
X30977Y60726D01*
X31027Y60688D01*
X31070Y60655D01*
X31081Y60644D01*
X31108Y60617D01*
X31152Y60573D01*
X31207Y60519D01*
X31267Y60442D01*
X31338Y60360D01*
X31409Y60262D01*
X31485Y60153D01*
X32135Y59126D01*
X31512D01*
X31016Y59913D01*
Y59918D01*
X31005Y59929D01*
X30994Y59945D01*
X30977Y59967D01*
X30939Y60027D01*
X30890Y60104D01*
X30830Y60185D01*
X30770Y60273D01*
X30710Y60355D01*
X30655Y60431D01*
X30650Y60437D01*
X30633Y60458D01*
X30606Y60491D01*
X30568Y60530D01*
X30486Y60611D01*
X30442Y60650D01*
X30399Y60682D01*
X30393Y60688D01*
X30382Y60693D01*
X30360Y60704D01*
X30328Y60721D01*
X30295Y60737D01*
X30257Y60753D01*
X30169Y60781D01*
X30164D01*
X30153Y60786D01*
X30131D01*
X30104Y60792D01*
X30066Y60797D01*
X30022D01*
X29962Y60803D01*
X29318D01*
Y59126D01*
X28815D01*
Y62905D01*
X30568D01*
X30612Y62899D01*
D02*
G37*
G36*
X48328Y53130D02*
X48377Y53125D01*
X48437Y53119D01*
X48497Y53114D01*
X48568Y53098D01*
X48716Y53065D01*
X48880Y53016D01*
X48961Y52983D01*
X49038Y52945D01*
X49114Y52895D01*
X49191Y52846D01*
X49196Y52841D01*
X49207Y52836D01*
X49229Y52819D01*
X49256Y52792D01*
X49284Y52764D01*
X49322Y52726D01*
X49360Y52683D01*
X49404Y52639D01*
X49447Y52584D01*
X49491Y52519D01*
X49540Y52453D01*
X49584Y52382D01*
X49622Y52300D01*
X49666Y52219D01*
X49698Y52131D01*
X49731Y52033D01*
X49240Y51918D01*
Y51924D01*
X49234Y51935D01*
X49224Y51956D01*
X49213Y51984D01*
X49202Y52017D01*
X49185Y52060D01*
X49142Y52148D01*
X49087Y52246D01*
X49022Y52344D01*
X48940Y52437D01*
X48852Y52519D01*
X48841Y52530D01*
X48809Y52552D01*
X48754Y52579D01*
X48683Y52617D01*
X48590Y52650D01*
X48486Y52683D01*
X48361Y52704D01*
X48224Y52710D01*
X48181D01*
X48153Y52704D01*
X48115D01*
X48072Y52699D01*
X47968Y52683D01*
X47853Y52661D01*
X47733Y52622D01*
X47607Y52568D01*
X47493Y52497D01*
X47487D01*
X47482Y52486D01*
X47444Y52459D01*
X47394Y52415D01*
X47334Y52350D01*
X47263Y52268D01*
X47198Y52175D01*
X47138Y52060D01*
X47083Y51935D01*
Y51929D01*
X47078Y51918D01*
X47072Y51902D01*
X47067Y51875D01*
X47056Y51842D01*
X47045Y51803D01*
X47029Y51711D01*
X47007Y51601D01*
X46985Y51481D01*
X46974Y51350D01*
X46968Y51208D01*
Y51203D01*
Y51187D01*
Y51159D01*
Y51126D01*
X46974Y51088D01*
Y51039D01*
X46979Y50985D01*
X46985Y50924D01*
X47001Y50793D01*
X47029Y50652D01*
X47061Y50510D01*
X47105Y50368D01*
Y50362D01*
X47111Y50351D01*
X47121Y50335D01*
X47132Y50308D01*
X47165Y50242D01*
X47214Y50165D01*
X47274Y50078D01*
X47351Y49985D01*
X47438Y49904D01*
X47542Y49827D01*
X47547D01*
X47558Y49822D01*
X47575Y49811D01*
X47596Y49800D01*
X47624Y49789D01*
X47657Y49772D01*
X47733Y49740D01*
X47831Y49707D01*
X47940Y49680D01*
X48061Y49658D01*
X48186Y49652D01*
X48224D01*
X48257Y49658D01*
X48295D01*
X48333Y49663D01*
X48432Y49685D01*
X48546Y49712D01*
X48661Y49756D01*
X48781Y49816D01*
X48841Y49849D01*
X48896Y49893D01*
X48901Y49898D01*
X48907Y49904D01*
X48923Y49920D01*
X48945Y49936D01*
X48967Y49964D01*
X48994Y49996D01*
X49027Y50029D01*
X49054Y50073D01*
X49087Y50122D01*
X49125Y50177D01*
X49158Y50231D01*
X49191Y50297D01*
X49218Y50368D01*
X49245Y50444D01*
X49273Y50526D01*
X49294Y50613D01*
X49797Y50488D01*
Y50482D01*
X49791Y50460D01*
X49780Y50428D01*
X49764Y50384D01*
X49748Y50335D01*
X49726Y50275D01*
X49698Y50209D01*
X49666Y50138D01*
X49589Y49985D01*
X49491Y49832D01*
X49431Y49756D01*
X49371Y49680D01*
X49305Y49614D01*
X49229Y49549D01*
X49224Y49543D01*
X49213Y49532D01*
X49185Y49521D01*
X49158Y49499D01*
X49114Y49472D01*
X49071Y49445D01*
X49011Y49417D01*
X48950Y49390D01*
X48880Y49358D01*
X48803Y49330D01*
X48721Y49303D01*
X48634Y49276D01*
X48541Y49254D01*
X48443Y49243D01*
X48339Y49232D01*
X48230Y49226D01*
X48170D01*
X48126Y49232D01*
X48077D01*
X48017Y49237D01*
X47951Y49248D01*
X47875Y49259D01*
X47717Y49286D01*
X47553Y49330D01*
X47389Y49390D01*
X47313Y49428D01*
X47236Y49472D01*
X47231Y49478D01*
X47220Y49483D01*
X47198Y49499D01*
X47176Y49521D01*
X47143Y49543D01*
X47105Y49576D01*
X47061Y49614D01*
X47018Y49658D01*
X46974Y49707D01*
X46925Y49756D01*
X46827Y49882D01*
X46734Y50029D01*
X46652Y50193D01*
Y50198D01*
X46641Y50215D01*
X46635Y50242D01*
X46619Y50275D01*
X46608Y50318D01*
X46592Y50373D01*
X46570Y50433D01*
X46554Y50499D01*
X46537Y50570D01*
X46515Y50652D01*
X46488Y50821D01*
X46466Y51012D01*
X46455Y51208D01*
Y51214D01*
Y51236D01*
Y51269D01*
X46461Y51307D01*
Y51361D01*
X46466Y51416D01*
X46472Y51487D01*
X46483Y51558D01*
X46510Y51716D01*
X46548Y51891D01*
X46603Y52066D01*
X46679Y52235D01*
X46685Y52240D01*
X46690Y52257D01*
X46701Y52279D01*
X46723Y52306D01*
X46745Y52344D01*
X46772Y52388D01*
X46843Y52486D01*
X46936Y52595D01*
X47045Y52704D01*
X47171Y52814D01*
X47318Y52907D01*
X47323Y52912D01*
X47340Y52917D01*
X47362Y52928D01*
X47389Y52945D01*
X47433Y52961D01*
X47476Y52977D01*
X47531Y52999D01*
X47591Y53021D01*
X47657Y53043D01*
X47728Y53065D01*
X47880Y53098D01*
X48055Y53125D01*
X48235Y53136D01*
X48290D01*
X48328Y53130D01*
D02*
G37*
G36*
X51970Y49292D02*
X51506D01*
Y52246D01*
X51500Y52240D01*
X51473Y52219D01*
X51440Y52186D01*
X51386Y52148D01*
X51326Y52098D01*
X51249Y52044D01*
X51162Y51984D01*
X51064Y51924D01*
X51058D01*
X51053Y51918D01*
X51020Y51896D01*
X50965Y51869D01*
X50900Y51836D01*
X50823Y51798D01*
X50741Y51760D01*
X50660Y51722D01*
X50578Y51689D01*
Y52137D01*
X50583D01*
X50594Y52148D01*
X50616Y52153D01*
X50643Y52169D01*
X50676Y52186D01*
X50714Y52208D01*
X50807Y52262D01*
X50916Y52322D01*
X51025Y52399D01*
X51140Y52486D01*
X51255Y52579D01*
X51260Y52584D01*
X51266Y52590D01*
X51282Y52606D01*
X51304Y52622D01*
X51353Y52677D01*
X51418Y52743D01*
X51484Y52819D01*
X51555Y52907D01*
X51615Y52994D01*
X51670Y53087D01*
X51970D01*
Y49292D01*
D02*
G37*
G36*
X146849Y26366D02*
X146385D01*
Y29320D01*
X146379Y29315D01*
X146352Y29293D01*
X146319Y29260D01*
X146265Y29222D01*
X146205Y29173D01*
X146128Y29118D01*
X146041Y29058D01*
X145943Y28998D01*
X145937D01*
X145932Y28993D01*
X145899Y28971D01*
X145844Y28944D01*
X145779Y28911D01*
X145703Y28873D01*
X145621Y28835D01*
X145539Y28796D01*
X145457Y28763D01*
Y29211D01*
X145462D01*
X145473Y29222D01*
X145495Y29228D01*
X145522Y29244D01*
X145555Y29260D01*
X145593Y29282D01*
X145686Y29337D01*
X145795Y29397D01*
X145905Y29473D01*
X146019Y29561D01*
X146134Y29653D01*
X146139Y29659D01*
X146145Y29664D01*
X146161Y29681D01*
X146183Y29697D01*
X146232Y29752D01*
X146298Y29817D01*
X146363Y29894D01*
X146434Y29981D01*
X146494Y30068D01*
X146549Y30161D01*
X146849D01*
Y26366D01*
D02*
G37*
G36*
X144889D02*
X144321D01*
X143879Y27513D01*
X142295D01*
X141886Y26366D01*
X141356D01*
X142798Y30145D01*
X143344D01*
X144889Y26366D01*
D02*
G37*
G36*
X140501Y41319D02*
X140550Y41314D01*
X140610Y41308D01*
X140670Y41303D01*
X140741Y41287D01*
X140889Y41254D01*
X141052Y41205D01*
X141134Y41172D01*
X141211Y41134D01*
X141287Y41085D01*
X141364Y41035D01*
X141369Y41030D01*
X141380Y41025D01*
X141402Y41008D01*
X141429Y40981D01*
X141456Y40953D01*
X141495Y40915D01*
X141533Y40872D01*
X141577Y40828D01*
X141620Y40773D01*
X141664Y40708D01*
X141713Y40642D01*
X141757Y40571D01*
X141795Y40489D01*
X141839Y40407D01*
X141872Y40320D01*
X141904Y40222D01*
X141413Y40107D01*
Y40113D01*
X141407Y40124D01*
X141396Y40145D01*
X141386Y40173D01*
X141375Y40205D01*
X141358Y40249D01*
X141315Y40336D01*
X141260Y40435D01*
X141194Y40533D01*
X141113Y40626D01*
X141025Y40708D01*
X141014Y40719D01*
X140981Y40740D01*
X140927Y40768D01*
X140856Y40806D01*
X140763Y40839D01*
X140659Y40872D01*
X140534Y40893D01*
X140397Y40899D01*
X140354D01*
X140326Y40893D01*
X140288D01*
X140244Y40888D01*
X140141Y40872D01*
X140026Y40850D01*
X139906Y40811D01*
X139780Y40757D01*
X139666Y40686D01*
X139660D01*
X139655Y40675D01*
X139617Y40648D01*
X139567Y40604D01*
X139507Y40538D01*
X139436Y40457D01*
X139371Y40364D01*
X139311Y40249D01*
X139256Y40124D01*
Y40118D01*
X139251Y40107D01*
X139245Y40091D01*
X139240Y40064D01*
X139229Y40031D01*
X139218Y39992D01*
X139202Y39900D01*
X139180Y39790D01*
X139158Y39670D01*
X139147Y39539D01*
X139141Y39397D01*
Y39392D01*
Y39375D01*
Y39348D01*
Y39316D01*
X139147Y39277D01*
Y39228D01*
X139152Y39173D01*
X139158Y39114D01*
X139174Y38982D01*
X139202Y38840D01*
X139234Y38699D01*
X139278Y38557D01*
Y38551D01*
X139284Y38540D01*
X139294Y38524D01*
X139305Y38497D01*
X139338Y38431D01*
X139387Y38355D01*
X139447Y38267D01*
X139524Y38174D01*
X139611Y38092D01*
X139715Y38016D01*
X139720D01*
X139731Y38010D01*
X139748Y38000D01*
X139769Y37989D01*
X139797Y37978D01*
X139830Y37961D01*
X139906Y37929D01*
X140004Y37896D01*
X140113Y37869D01*
X140234Y37847D01*
X140359Y37841D01*
X140397D01*
X140430Y37847D01*
X140468D01*
X140506Y37852D01*
X140605Y37874D01*
X140719Y37901D01*
X140834Y37945D01*
X140954Y38005D01*
X141014Y38038D01*
X141069Y38081D01*
X141074Y38087D01*
X141080Y38092D01*
X141096Y38109D01*
X141118Y38125D01*
X141140Y38153D01*
X141167Y38185D01*
X141200Y38218D01*
X141227Y38262D01*
X141260Y38311D01*
X141298Y38365D01*
X141331Y38420D01*
X141364Y38486D01*
X141391Y38557D01*
X141418Y38633D01*
X141446Y38715D01*
X141467Y38802D01*
X141970Y38677D01*
Y38671D01*
X141964Y38649D01*
X141953Y38617D01*
X141937Y38573D01*
X141921Y38524D01*
X141899Y38464D01*
X141872Y38398D01*
X141839Y38327D01*
X141762Y38174D01*
X141664Y38021D01*
X141604Y37945D01*
X141544Y37869D01*
X141478Y37803D01*
X141402Y37738D01*
X141396Y37732D01*
X141386Y37721D01*
X141358Y37710D01*
X141331Y37688D01*
X141287Y37661D01*
X141244Y37634D01*
X141183Y37606D01*
X141123Y37579D01*
X141052Y37546D01*
X140976Y37519D01*
X140894Y37492D01*
X140807Y37464D01*
X140714Y37443D01*
X140616Y37432D01*
X140512Y37421D01*
X140403Y37415D01*
X140343D01*
X140299Y37421D01*
X140250D01*
X140190Y37426D01*
X140124Y37437D01*
X140048Y37448D01*
X139890Y37475D01*
X139726Y37519D01*
X139562Y37579D01*
X139486Y37617D01*
X139409Y37661D01*
X139404Y37667D01*
X139393Y37672D01*
X139371Y37688D01*
X139349Y37710D01*
X139316Y37732D01*
X139278Y37765D01*
X139234Y37803D01*
X139191Y37847D01*
X139147Y37896D01*
X139098Y37945D01*
X138999Y38071D01*
X138907Y38218D01*
X138825Y38382D01*
Y38387D01*
X138814Y38404D01*
X138808Y38431D01*
X138792Y38464D01*
X138781Y38507D01*
X138765Y38562D01*
X138743Y38622D01*
X138726Y38688D01*
X138710Y38759D01*
X138688Y38840D01*
X138661Y39010D01*
X138639Y39201D01*
X138628Y39397D01*
Y39403D01*
Y39425D01*
Y39457D01*
X138634Y39496D01*
Y39550D01*
X138639Y39605D01*
X138645Y39676D01*
X138656Y39747D01*
X138683Y39905D01*
X138721Y40080D01*
X138776Y40255D01*
X138852Y40424D01*
X138858Y40429D01*
X138863Y40446D01*
X138874Y40468D01*
X138896Y40495D01*
X138918Y40533D01*
X138945Y40577D01*
X139016Y40675D01*
X139109Y40784D01*
X139218Y40893D01*
X139344Y41003D01*
X139491Y41095D01*
X139496Y41101D01*
X139513Y41106D01*
X139535Y41117D01*
X139562Y41134D01*
X139606Y41150D01*
X139649Y41166D01*
X139704Y41188D01*
X139764Y41210D01*
X139830Y41232D01*
X139901Y41254D01*
X140053Y41287D01*
X140228Y41314D01*
X140408Y41325D01*
X140463D01*
X140501Y41319D01*
D02*
G37*
G36*
X143739Y41270D02*
X143782Y41265D01*
X143837Y41259D01*
X143897Y41248D01*
X143957Y41237D01*
X144099Y41199D01*
X144241Y41145D01*
X144312Y41112D01*
X144383Y41074D01*
X144449Y41025D01*
X144509Y40970D01*
X144514Y40964D01*
X144525Y40959D01*
X144536Y40937D01*
X144558Y40915D01*
X144585Y40888D01*
X144612Y40850D01*
X144640Y40811D01*
X144673Y40762D01*
X144727Y40659D01*
X144782Y40528D01*
X144804Y40462D01*
X144815Y40386D01*
X144825Y40309D01*
X144831Y40227D01*
Y40216D01*
Y40189D01*
X144825Y40145D01*
X144820Y40085D01*
X144809Y40020D01*
X144787Y39943D01*
X144765Y39862D01*
X144732Y39780D01*
X144727Y39769D01*
X144716Y39741D01*
X144694Y39698D01*
X144662Y39638D01*
X144618Y39572D01*
X144563Y39490D01*
X144498Y39408D01*
X144421Y39316D01*
X144410Y39305D01*
X144383Y39272D01*
X144356Y39244D01*
X144328Y39217D01*
X144296Y39184D01*
X144252Y39141D01*
X144208Y39097D01*
X144154Y39048D01*
X144099Y38993D01*
X144034Y38933D01*
X143963Y38873D01*
X143886Y38802D01*
X143799Y38731D01*
X143711Y38655D01*
X143706Y38649D01*
X143695Y38638D01*
X143673Y38622D01*
X143646Y38600D01*
X143613Y38568D01*
X143575Y38535D01*
X143488Y38464D01*
X143395Y38382D01*
X143307Y38300D01*
X143231Y38229D01*
X143198Y38202D01*
X143171Y38174D01*
X143166Y38169D01*
X143149Y38153D01*
X143127Y38131D01*
X143100Y38098D01*
X143073Y38060D01*
X143040Y38021D01*
X142974Y37929D01*
X144836D01*
Y37481D01*
X142330D01*
Y37486D01*
Y37508D01*
Y37541D01*
X142336Y37585D01*
X142341Y37634D01*
X142352Y37688D01*
X142363Y37743D01*
X142385Y37803D01*
Y37808D01*
X142390Y37814D01*
X142401Y37847D01*
X142423Y37896D01*
X142456Y37961D01*
X142499Y38038D01*
X142554Y38125D01*
X142614Y38213D01*
X142691Y38305D01*
Y38311D01*
X142701Y38316D01*
X142729Y38349D01*
X142778Y38398D01*
X142849Y38469D01*
X142931Y38551D01*
X143035Y38649D01*
X143160Y38759D01*
X143297Y38873D01*
X143302Y38879D01*
X143324Y38895D01*
X143357Y38922D01*
X143395Y38955D01*
X143444Y38999D01*
X143504Y39048D01*
X143564Y39103D01*
X143635Y39163D01*
X143772Y39294D01*
X143908Y39425D01*
X143974Y39490D01*
X144034Y39556D01*
X144088Y39616D01*
X144132Y39676D01*
Y39681D01*
X144143Y39687D01*
X144154Y39703D01*
X144165Y39725D01*
X144203Y39785D01*
X144247Y39856D01*
X144285Y39943D01*
X144323Y40036D01*
X144345Y40140D01*
X144356Y40238D01*
Y40244D01*
Y40249D01*
X144350Y40282D01*
X144345Y40336D01*
X144328Y40397D01*
X144307Y40473D01*
X144269Y40549D01*
X144219Y40626D01*
X144154Y40702D01*
X144143Y40713D01*
X144116Y40735D01*
X144077Y40762D01*
X144017Y40801D01*
X143941Y40833D01*
X143853Y40866D01*
X143750Y40888D01*
X143635Y40893D01*
X143602D01*
X143580Y40888D01*
X143515Y40883D01*
X143438Y40866D01*
X143357Y40844D01*
X143264Y40806D01*
X143176Y40757D01*
X143095Y40691D01*
X143084Y40681D01*
X143062Y40653D01*
X143029Y40609D01*
X142996Y40544D01*
X142958Y40468D01*
X142925Y40369D01*
X142903Y40260D01*
X142893Y40135D01*
X142418Y40184D01*
Y40189D01*
X142423Y40205D01*
Y40233D01*
X142428Y40271D01*
X142439Y40315D01*
X142450Y40364D01*
X142467Y40424D01*
X142483Y40484D01*
X142527Y40615D01*
X142592Y40746D01*
X142630Y40811D01*
X142680Y40877D01*
X142729Y40937D01*
X142783Y40992D01*
X142789Y40997D01*
X142800Y41003D01*
X142816Y41019D01*
X142843Y41035D01*
X142876Y41057D01*
X142914Y41079D01*
X142958Y41106D01*
X143013Y41134D01*
X143073Y41161D01*
X143138Y41188D01*
X143209Y41210D01*
X143286Y41232D01*
X143368Y41248D01*
X143455Y41265D01*
X143548Y41270D01*
X143646Y41276D01*
X143701D01*
X143739Y41270D01*
D02*
G37*
G36*
X153442Y62948D02*
X153513Y62937D01*
X153601Y62921D01*
X153699Y62894D01*
X153797Y62861D01*
X153895Y62817D01*
X153901D01*
X153906Y62812D01*
X153939Y62795D01*
X153988Y62763D01*
X154043Y62724D01*
X154108Y62670D01*
X154174Y62610D01*
X154239Y62539D01*
X154294Y62457D01*
X154299Y62446D01*
X154316Y62419D01*
X154338Y62370D01*
X154365Y62309D01*
X154392Y62239D01*
X154414Y62157D01*
X154430Y62064D01*
X154436Y61971D01*
Y61960D01*
Y61927D01*
X154430Y61884D01*
X154420Y61823D01*
X154403Y61752D01*
X154376Y61676D01*
X154343Y61600D01*
X154299Y61523D01*
X154294Y61512D01*
X154278Y61490D01*
X154245Y61452D01*
X154201Y61409D01*
X154147Y61359D01*
X154081Y61305D01*
X154005Y61256D01*
X153912Y61207D01*
X153917D01*
X153928Y61201D01*
X153944Y61196D01*
X153966Y61190D01*
X154026Y61168D01*
X154103Y61136D01*
X154190Y61092D01*
X154278Y61037D01*
X154359Y60966D01*
X154436Y60884D01*
X154441Y60874D01*
X154463Y60841D01*
X154496Y60786D01*
X154529Y60715D01*
X154561Y60628D01*
X154594Y60524D01*
X154616Y60404D01*
X154622Y60273D01*
Y60267D01*
Y60251D01*
Y60224D01*
X154616Y60191D01*
X154611Y60147D01*
X154600Y60098D01*
X154589Y60044D01*
X154578Y59983D01*
X154534Y59852D01*
X154501Y59781D01*
X154469Y59716D01*
X154425Y59645D01*
X154376Y59574D01*
X154321Y59503D01*
X154256Y59438D01*
X154250Y59432D01*
X154239Y59421D01*
X154217Y59405D01*
X154190Y59383D01*
X154157Y59356D01*
X154114Y59328D01*
X154065Y59295D01*
X154005Y59268D01*
X153944Y59236D01*
X153874Y59203D01*
X153803Y59175D01*
X153721Y59148D01*
X153633Y59126D01*
X153540Y59110D01*
X153448Y59099D01*
X153344Y59093D01*
X153295D01*
X153262Y59099D01*
X153218Y59104D01*
X153169Y59110D01*
X153114Y59121D01*
X153054Y59132D01*
X152923Y59165D01*
X152787Y59219D01*
X152716Y59252D01*
X152650Y59290D01*
X152585Y59339D01*
X152519Y59388D01*
X152514Y59394D01*
X152503Y59405D01*
X152487Y59421D01*
X152470Y59443D01*
X152443Y59470D01*
X152416Y59509D01*
X152383Y59547D01*
X152350Y59596D01*
X152317Y59650D01*
X152285Y59705D01*
X152225Y59836D01*
X152175Y59989D01*
X152159Y60071D01*
X152148Y60158D01*
X152612Y60218D01*
Y60213D01*
X152618Y60202D01*
X152623Y60180D01*
X152629Y60153D01*
X152634Y60120D01*
X152645Y60082D01*
X152672Y60000D01*
X152710Y59902D01*
X152760Y59809D01*
X152814Y59721D01*
X152880Y59645D01*
X152891Y59640D01*
X152912Y59618D01*
X152956Y59590D01*
X153011Y59563D01*
X153076Y59530D01*
X153158Y59503D01*
X153251Y59481D01*
X153349Y59476D01*
X153382D01*
X153404Y59481D01*
X153464Y59487D01*
X153540Y59503D01*
X153628Y59530D01*
X153721Y59569D01*
X153813Y59623D01*
X153901Y59700D01*
X153912Y59711D01*
X153939Y59743D01*
X153972Y59792D01*
X154015Y59858D01*
X154059Y59940D01*
X154092Y60033D01*
X154119Y60142D01*
X154130Y60262D01*
Y60267D01*
Y60278D01*
Y60295D01*
X154125Y60316D01*
X154119Y60377D01*
X154103Y60448D01*
X154081Y60535D01*
X154043Y60622D01*
X153988Y60710D01*
X153917Y60792D01*
X153906Y60803D01*
X153879Y60824D01*
X153835Y60857D01*
X153775Y60895D01*
X153699Y60934D01*
X153606Y60966D01*
X153502Y60988D01*
X153387Y60999D01*
X153338D01*
X153300Y60994D01*
X153251Y60988D01*
X153196Y60977D01*
X153131Y60966D01*
X153060Y60950D01*
X153114Y61359D01*
X153142D01*
X153164Y61354D01*
X153235D01*
X153295Y61365D01*
X153366Y61376D01*
X153448Y61392D01*
X153540Y61419D01*
X153628Y61458D01*
X153721Y61507D01*
X153726D01*
X153732Y61512D01*
X153759Y61534D01*
X153797Y61572D01*
X153841Y61621D01*
X153884Y61693D01*
X153923Y61774D01*
X153950Y61867D01*
X153961Y61922D01*
Y61982D01*
Y61987D01*
Y61993D01*
Y62025D01*
X153950Y62069D01*
X153939Y62129D01*
X153917Y62195D01*
X153890Y62266D01*
X153846Y62337D01*
X153786Y62402D01*
X153781Y62408D01*
X153753Y62430D01*
X153715Y62457D01*
X153666Y62490D01*
X153601Y62517D01*
X153524Y62544D01*
X153437Y62566D01*
X153338Y62572D01*
X153295D01*
X153246Y62561D01*
X153180Y62550D01*
X153109Y62528D01*
X153038Y62501D01*
X152962Y62457D01*
X152891Y62402D01*
X152885Y62397D01*
X152863Y62370D01*
X152831Y62331D01*
X152792Y62277D01*
X152754Y62206D01*
X152716Y62118D01*
X152683Y62015D01*
X152661Y61895D01*
X152197Y61976D01*
Y61982D01*
X152203Y61998D01*
X152208Y62020D01*
X152214Y62053D01*
X152225Y62091D01*
X152241Y62135D01*
X152274Y62239D01*
X152328Y62359D01*
X152394Y62479D01*
X152476Y62593D01*
X152579Y62697D01*
X152585Y62703D01*
X152596Y62708D01*
X152612Y62719D01*
X152634Y62735D01*
X152661Y62757D01*
X152700Y62779D01*
X152738Y62801D01*
X152787Y62828D01*
X152896Y62872D01*
X153022Y62915D01*
X153169Y62943D01*
X153246Y62954D01*
X153382D01*
X153442Y62948D01*
D02*
G37*
G36*
X150324Y62932D02*
X150374D01*
X150488Y62926D01*
X150608Y62910D01*
X150739Y62894D01*
X150859Y62866D01*
X150920Y62850D01*
X150969Y62834D01*
X150974D01*
X150980Y62828D01*
X151012Y62812D01*
X151062Y62790D01*
X151122Y62752D01*
X151187Y62703D01*
X151258Y62637D01*
X151324Y62561D01*
X151389Y62473D01*
Y62468D01*
X151395Y62462D01*
X151417Y62430D01*
X151438Y62375D01*
X151471Y62304D01*
X151498Y62222D01*
X151526Y62124D01*
X151542Y62020D01*
X151548Y61905D01*
Y61900D01*
Y61889D01*
Y61867D01*
X151542Y61840D01*
Y61802D01*
X151537Y61764D01*
X151515Y61671D01*
X151482Y61561D01*
X151438Y61447D01*
X151373Y61332D01*
X151329Y61278D01*
X151285Y61223D01*
X151280Y61217D01*
X151275Y61212D01*
X151258Y61196D01*
X151236Y61179D01*
X151209Y61157D01*
X151176Y61136D01*
X151133Y61108D01*
X151089Y61076D01*
X151034Y61048D01*
X150974Y61021D01*
X150909Y60988D01*
X150838Y60961D01*
X150756Y60939D01*
X150674Y60912D01*
X150581Y60895D01*
X150483Y60879D01*
X150494Y60874D01*
X150516Y60862D01*
X150548Y60841D01*
X150592Y60819D01*
X150690Y60759D01*
X150739Y60721D01*
X150783Y60688D01*
X150794Y60677D01*
X150821Y60650D01*
X150865Y60606D01*
X150920Y60551D01*
X150980Y60475D01*
X151051Y60393D01*
X151122Y60295D01*
X151198Y60185D01*
X151848Y59159D01*
X151225D01*
X150728Y59945D01*
Y59951D01*
X150718Y59962D01*
X150707Y59978D01*
X150690Y60000D01*
X150652Y60060D01*
X150603Y60136D01*
X150543Y60218D01*
X150483Y60306D01*
X150423Y60387D01*
X150368Y60464D01*
X150363Y60469D01*
X150346Y60491D01*
X150319Y60524D01*
X150281Y60562D01*
X150199Y60644D01*
X150155Y60682D01*
X150111Y60715D01*
X150106Y60721D01*
X150095Y60726D01*
X150073Y60737D01*
X150040Y60753D01*
X150008Y60770D01*
X149970Y60786D01*
X149882Y60813D01*
X149877D01*
X149866Y60819D01*
X149844D01*
X149817Y60824D01*
X149778Y60830D01*
X149735D01*
X149675Y60835D01*
X149030D01*
Y59159D01*
X148528D01*
Y62937D01*
X150281D01*
X150324Y62932D01*
D02*
G37*
G36*
X34021Y76215D02*
X34535D01*
Y75789D01*
X34021D01*
Y74883D01*
X33557D01*
Y75789D01*
X31914D01*
Y76215D01*
X33645Y78661D01*
X34021D01*
Y76215D01*
D02*
G37*
G36*
X30254Y78655D02*
X30303D01*
X30418Y78650D01*
X30538Y78633D01*
X30669Y78617D01*
X30789Y78590D01*
X30849Y78574D01*
X30898Y78557D01*
X30904D01*
X30909Y78552D01*
X30942Y78535D01*
X30991Y78513D01*
X31051Y78475D01*
X31117Y78426D01*
X31188Y78360D01*
X31253Y78284D01*
X31319Y78197D01*
Y78191D01*
X31324Y78186D01*
X31346Y78153D01*
X31368Y78098D01*
X31400Y78027D01*
X31428Y77946D01*
X31455Y77847D01*
X31471Y77744D01*
X31477Y77629D01*
Y77623D01*
Y77613D01*
Y77591D01*
X31471Y77563D01*
Y77525D01*
X31466Y77487D01*
X31444Y77394D01*
X31411Y77285D01*
X31368Y77170D01*
X31302Y77056D01*
X31259Y77001D01*
X31215Y76946D01*
X31209Y76941D01*
X31204Y76935D01*
X31188Y76919D01*
X31166Y76903D01*
X31138Y76881D01*
X31106Y76859D01*
X31062Y76832D01*
X31018Y76799D01*
X30964Y76772D01*
X30904Y76744D01*
X30838Y76712D01*
X30767Y76684D01*
X30685Y76662D01*
X30603Y76635D01*
X30511Y76619D01*
X30412Y76602D01*
X30423Y76597D01*
X30445Y76586D01*
X30478Y76564D01*
X30521Y76542D01*
X30620Y76482D01*
X30669Y76444D01*
X30713Y76411D01*
X30724Y76400D01*
X30751Y76373D01*
X30795Y76329D01*
X30849Y76275D01*
X30909Y76198D01*
X30980Y76116D01*
X31051Y76018D01*
X31128Y75909D01*
X31777Y74883D01*
X31155D01*
X30658Y75669D01*
Y75674D01*
X30647Y75685D01*
X30636Y75701D01*
X30620Y75723D01*
X30582Y75783D01*
X30532Y75860D01*
X30472Y75942D01*
X30412Y76029D01*
X30352Y76111D01*
X30298Y76187D01*
X30292Y76193D01*
X30276Y76215D01*
X30248Y76248D01*
X30210Y76286D01*
X30128Y76368D01*
X30085Y76406D01*
X30041Y76439D01*
X30035Y76444D01*
X30025Y76450D01*
X30003Y76460D01*
X29970Y76477D01*
X29937Y76493D01*
X29899Y76510D01*
X29812Y76537D01*
X29806D01*
X29795Y76542D01*
X29773D01*
X29746Y76548D01*
X29708Y76553D01*
X29664D01*
X29604Y76559D01*
X28960D01*
Y74883D01*
X28458D01*
Y78661D01*
X30210D01*
X30254Y78655D01*
D02*
G37*
%LPC*%
G36*
X147929Y121407D02*
Y119359D01*
X147936D01*
X147951D01*
X147973Y119366D01*
X148002D01*
X148090Y119380D01*
X148184Y119402D01*
X148301Y119439D01*
X148410Y119475D01*
X148520Y119534D01*
X148615Y119599D01*
X148622D01*
X148629Y119614D01*
X148673Y119650D01*
X148731Y119716D01*
X148797Y119803D01*
X148862Y119913D01*
X148921Y120044D01*
X148964Y120197D01*
X148972Y120277D01*
X148979Y120365D01*
Y120408D01*
X148972Y120438D01*
X148964Y120518D01*
X148942Y120613D01*
X148906Y120729D01*
X148855Y120853D01*
X148782Y120970D01*
X148687Y121086D01*
X148673Y121101D01*
X148636Y121130D01*
X148571Y121181D01*
X148483Y121232D01*
X148381Y121291D01*
X148250Y121342D01*
X148097Y121385D01*
X147929Y121407D01*
D02*
G37*
G36*
X146734Y115145D02*
X146726D01*
X146690D01*
X146646Y115138D01*
X146588Y115123D01*
X146522Y115101D01*
X146457Y115065D01*
X146384Y115021D01*
X146318Y114963D01*
X146311Y114955D01*
X146296Y114926D01*
X146267Y114883D01*
X146238Y114824D01*
X146209Y114744D01*
X146180Y114649D01*
X146165Y114540D01*
X146158Y114409D01*
Y114350D01*
X146165Y114278D01*
X146180Y114197D01*
X146194Y114095D01*
X146223Y113993D01*
X146260Y113884D01*
X146311Y113775D01*
X146318Y113760D01*
X146340Y113731D01*
X146376Y113680D01*
X146427Y113621D01*
X146486Y113556D01*
X146559Y113483D01*
X146646Y113425D01*
X146741Y113366D01*
X146748Y113359D01*
X146777Y113352D01*
X146828Y113337D01*
X146894Y113315D01*
X146982Y113293D01*
X147083Y113279D01*
X147207Y113271D01*
X147353Y113264D01*
X147587Y113257D01*
Y113264D01*
X147579Y113271D01*
X147572Y113293D01*
X147565Y113322D01*
X147550Y113359D01*
X147536Y113403D01*
X147521Y113454D01*
X147506Y113512D01*
X147485Y113578D01*
X147470Y113658D01*
X147448Y113738D01*
X147426Y113833D01*
X147404Y113935D01*
X147382Y114037D01*
X147368Y114154D01*
X147346Y114278D01*
Y114292D01*
X147339Y114336D01*
X147324Y114409D01*
X147310Y114489D01*
X147295Y114576D01*
X147273Y114664D01*
X147251Y114744D01*
X147222Y114817D01*
Y114824D01*
X147207Y114846D01*
X147193Y114875D01*
X147171Y114904D01*
X147113Y114992D01*
X147025Y115065D01*
X147018D01*
X147003Y115079D01*
X146974Y115087D01*
X146938Y115101D01*
X146894Y115116D01*
X146850Y115130D01*
X146792Y115138D01*
X146734Y115145D01*
D02*
G37*
G36*
X147929Y96315D02*
Y94266D01*
X147936D01*
X147951D01*
X147973Y94274D01*
X148002D01*
X148090Y94288D01*
X148184Y94310D01*
X148301Y94347D01*
X148410Y94383D01*
X148520Y94441D01*
X148615Y94507D01*
X148622D01*
X148629Y94522D01*
X148673Y94558D01*
X148731Y94624D01*
X148797Y94711D01*
X148862Y94820D01*
X148921Y94952D01*
X148964Y95105D01*
X148972Y95185D01*
X148979Y95272D01*
Y95316D01*
X148972Y95345D01*
X148964Y95426D01*
X148942Y95520D01*
X148906Y95637D01*
X148855Y95761D01*
X148782Y95877D01*
X148687Y95994D01*
X148673Y96009D01*
X148636Y96038D01*
X148571Y96089D01*
X148483Y96140D01*
X148381Y96198D01*
X148250Y96249D01*
X148097Y96293D01*
X147929Y96315D01*
D02*
G37*
G36*
X147579Y85001D02*
X147572D01*
X147550D01*
X147514D01*
X147463Y84994D01*
X147404D01*
X147339Y84986D01*
X147186Y84964D01*
X147011Y84928D01*
X146836Y84870D01*
X146668Y84797D01*
X146595Y84746D01*
X146522Y84695D01*
Y84687D01*
X146508Y84680D01*
X146471Y84636D01*
X146413Y84571D01*
X146354Y84483D01*
X146289Y84374D01*
X146231Y84243D01*
X146194Y84090D01*
X146187Y84009D01*
X146180Y83922D01*
Y83878D01*
X146187Y83842D01*
X146202Y83762D01*
X146223Y83652D01*
X146267Y83536D01*
X146325Y83404D01*
X146413Y83280D01*
X146471Y83215D01*
X146529Y83157D01*
X146537Y83149D01*
X146544Y83142D01*
X146566Y83127D01*
X146595Y83105D01*
X146632Y83084D01*
X146675Y83054D01*
X146734Y83025D01*
X146792Y82996D01*
X146865Y82967D01*
X146945Y82945D01*
X147032Y82916D01*
X147127Y82894D01*
X147237Y82872D01*
X147346Y82858D01*
X147470Y82843D01*
X147601D01*
X147608D01*
X147630D01*
X147667D01*
X147711Y82850D01*
X147769D01*
X147834Y82858D01*
X147987Y82880D01*
X148148Y82916D01*
X148323Y82974D01*
X148483Y83054D01*
X148563Y83098D01*
X148629Y83157D01*
X148636D01*
X148644Y83171D01*
X148687Y83215D01*
X148738Y83280D01*
X148804Y83368D01*
X148870Y83477D01*
X148928Y83609D01*
X148964Y83754D01*
X148972Y83834D01*
X148979Y83922D01*
Y83966D01*
X148972Y84002D01*
X148964Y84082D01*
X148935Y84192D01*
X148891Y84316D01*
X148833Y84447D01*
X148746Y84571D01*
X148687Y84636D01*
X148629Y84695D01*
X148622D01*
X148615Y84709D01*
X148593Y84724D01*
X148563Y84746D01*
X148527Y84768D01*
X148483Y84789D01*
X148425Y84819D01*
X148367Y84848D01*
X148294Y84877D01*
X148221Y84906D01*
X148133Y84928D01*
X148038Y84950D01*
X147936Y84972D01*
X147827Y84986D01*
X147703Y84994D01*
X147579Y85001D01*
D02*
G37*
G36*
X147827Y78542D02*
Y76836D01*
X149212Y77361D01*
X149220D01*
X149241Y77368D01*
X149278Y77383D01*
X149322Y77397D01*
X149373Y77419D01*
X149438Y77441D01*
X149511Y77463D01*
X149584Y77492D01*
X149752Y77551D01*
X149927Y77609D01*
X150102Y77667D01*
X150269Y77718D01*
X150262D01*
X150247Y77725D01*
X150218D01*
X150189Y77740D01*
X150138Y77747D01*
X150087Y77762D01*
X149963Y77791D01*
X149817Y77828D01*
X149657Y77878D01*
X149482Y77930D01*
X149300Y77995D01*
X147827Y78542D01*
D02*
G37*
G36*
X156773Y100229D02*
X156765D01*
X156744D01*
X156707D01*
X156656Y100221D01*
X156598D01*
X156532Y100214D01*
X156379Y100192D01*
X156204Y100156D01*
X156029Y100098D01*
X155861Y100024D01*
X155789Y99973D01*
X155716Y99923D01*
Y99915D01*
X155701Y99908D01*
X155665Y99864D01*
X155606Y99799D01*
X155548Y99711D01*
X155482Y99602D01*
X155424Y99471D01*
X155388Y99317D01*
X155380Y99237D01*
X155373Y99150D01*
Y99106D01*
X155380Y99070D01*
X155395Y98989D01*
X155417Y98880D01*
X155461Y98763D01*
X155519Y98632D01*
X155606Y98508D01*
X155665Y98443D01*
X155723Y98384D01*
X155730Y98377D01*
X155738Y98370D01*
X155760Y98355D01*
X155789Y98333D01*
X155825Y98311D01*
X155869Y98282D01*
X155927Y98253D01*
X155985Y98224D01*
X156058Y98195D01*
X156139Y98173D01*
X156226Y98144D01*
X156321Y98122D01*
X156430Y98100D01*
X156539Y98085D01*
X156663Y98071D01*
X156795D01*
X156802D01*
X156824D01*
X156860D01*
X156904Y98078D01*
X156962D01*
X157028Y98085D01*
X157181Y98107D01*
X157341Y98144D01*
X157516Y98202D01*
X157677Y98282D01*
X157757Y98326D01*
X157823Y98384D01*
X157830D01*
X157837Y98399D01*
X157881Y98443D01*
X157932Y98508D01*
X157998Y98596D01*
X158063Y98705D01*
X158121Y98836D01*
X158158Y98982D01*
X158165Y99062D01*
X158173Y99150D01*
Y99194D01*
X158165Y99230D01*
X158158Y99310D01*
X158129Y99419D01*
X158085Y99543D01*
X158027Y99675D01*
X157939Y99799D01*
X157881Y99864D01*
X157823Y99923D01*
X157815D01*
X157808Y99937D01*
X157786Y99952D01*
X157757Y99973D01*
X157720Y99995D01*
X157677Y100017D01*
X157618Y100046D01*
X157560Y100076D01*
X157487Y100105D01*
X157414Y100134D01*
X157327Y100156D01*
X157232Y100178D01*
X157130Y100199D01*
X157021Y100214D01*
X156897Y100221D01*
X156773Y100229D01*
D02*
G37*
G36*
X156882Y96146D02*
X156751D01*
X156744D01*
X156722D01*
X156685D01*
X156634Y96139D01*
X156576D01*
X156510Y96132D01*
X156357Y96110D01*
X156182Y96073D01*
X156015Y96030D01*
X155847Y95957D01*
X155774Y95913D01*
X155708Y95862D01*
X155694Y95847D01*
X155657Y95811D01*
X155599Y95753D01*
X155541Y95672D01*
X155482Y95570D01*
X155424Y95454D01*
X155388Y95323D01*
X155380Y95250D01*
X155373Y95177D01*
Y95133D01*
X155380Y95104D01*
X155395Y95031D01*
X155417Y94929D01*
X155461Y94819D01*
X155519Y94703D01*
X155606Y94586D01*
X155657Y94528D01*
X155716Y94470D01*
X155723D01*
X155730Y94455D01*
X155752Y94440D01*
X155781Y94426D01*
X155818Y94397D01*
X155869Y94375D01*
X155920Y94346D01*
X155985Y94317D01*
X156051Y94295D01*
X156139Y94265D01*
X156226Y94236D01*
X156321Y94214D01*
X156430Y94200D01*
X156547Y94185D01*
X156671Y94171D01*
X156802D01*
X156809D01*
X156831D01*
X156868D01*
X156919Y94178D01*
X156977D01*
X157043Y94185D01*
X157196Y94207D01*
X157363Y94244D01*
X157531Y94295D01*
X157699Y94367D01*
X157779Y94411D01*
X157844Y94462D01*
X157852D01*
X157859Y94477D01*
X157903Y94513D01*
X157954Y94572D01*
X158019Y94652D01*
X158085Y94754D01*
X158143Y94871D01*
X158180Y95002D01*
X158187Y95075D01*
X158194Y95148D01*
Y95184D01*
X158187Y95213D01*
X158173Y95286D01*
X158151Y95381D01*
X158107Y95490D01*
X158041Y95607D01*
X157998Y95672D01*
X157947Y95731D01*
X157888Y95789D01*
X157823Y95847D01*
X157815D01*
X157808Y95862D01*
X157786Y95876D01*
X157757Y95891D01*
X157713Y95913D01*
X157669Y95942D01*
X157611Y95971D01*
X157553Y95993D01*
X157480Y96022D01*
X157400Y96052D01*
X157312Y96073D01*
X157218Y96102D01*
X157108Y96117D01*
X156999Y96132D01*
X156882Y96146D01*
D02*
G37*
G36*
X156773Y88463D02*
X156765D01*
X156744D01*
X156707D01*
X156656Y88455D01*
X156598D01*
X156532Y88448D01*
X156379Y88426D01*
X156204Y88390D01*
X156029Y88331D01*
X155861Y88258D01*
X155789Y88208D01*
X155716Y88156D01*
Y88149D01*
X155701Y88142D01*
X155665Y88098D01*
X155606Y88033D01*
X155548Y87945D01*
X155482Y87836D01*
X155424Y87704D01*
X155388Y87551D01*
X155380Y87471D01*
X155373Y87384D01*
Y87340D01*
X155380Y87304D01*
X155395Y87223D01*
X155417Y87114D01*
X155461Y86997D01*
X155519Y86866D01*
X155606Y86742D01*
X155665Y86677D01*
X155723Y86618D01*
X155730Y86611D01*
X155738Y86604D01*
X155760Y86589D01*
X155789Y86567D01*
X155825Y86545D01*
X155869Y86516D01*
X155927Y86487D01*
X155985Y86458D01*
X156058Y86429D01*
X156139Y86407D01*
X156226Y86378D01*
X156321Y86356D01*
X156430Y86334D01*
X156539Y86319D01*
X156663Y86305D01*
X156795D01*
X156802D01*
X156824D01*
X156860D01*
X156904Y86312D01*
X156962D01*
X157028Y86319D01*
X157181Y86341D01*
X157341Y86378D01*
X157516Y86436D01*
X157677Y86516D01*
X157757Y86560D01*
X157823Y86618D01*
X157830D01*
X157837Y86633D01*
X157881Y86677D01*
X157932Y86742D01*
X157998Y86830D01*
X158063Y86939D01*
X158121Y87070D01*
X158158Y87216D01*
X158165Y87296D01*
X158173Y87384D01*
Y87427D01*
X158165Y87464D01*
X158158Y87544D01*
X158129Y87653D01*
X158085Y87777D01*
X158027Y87909D01*
X157939Y88033D01*
X157881Y88098D01*
X157823Y88156D01*
X157815D01*
X157808Y88171D01*
X157786Y88186D01*
X157757Y88208D01*
X157720Y88229D01*
X157677Y88251D01*
X157618Y88280D01*
X157560Y88310D01*
X157487Y88339D01*
X157414Y88368D01*
X157327Y88390D01*
X157232Y88412D01*
X157130Y88433D01*
X157021Y88448D01*
X156897Y88455D01*
X156773Y88463D01*
D02*
G37*
G36*
X157123Y80560D02*
Y78512D01*
X157130D01*
X157145D01*
X157167Y78519D01*
X157196D01*
X157283Y78534D01*
X157378Y78556D01*
X157494Y78592D01*
X157604Y78628D01*
X157713Y78687D01*
X157808Y78752D01*
X157815D01*
X157823Y78767D01*
X157866Y78803D01*
X157925Y78869D01*
X157990Y78956D01*
X158056Y79066D01*
X158114Y79197D01*
X158158Y79350D01*
X158165Y79430D01*
X158173Y79518D01*
Y79562D01*
X158165Y79591D01*
X158158Y79671D01*
X158136Y79766D01*
X158100Y79882D01*
X158048Y80006D01*
X157976Y80123D01*
X157881Y80239D01*
X157866Y80254D01*
X157830Y80283D01*
X157764Y80334D01*
X157677Y80385D01*
X157575Y80444D01*
X157443Y80495D01*
X157290Y80538D01*
X157123Y80560D01*
D02*
G37*
G36*
X89216Y113665D02*
X88026D01*
Y112415D01*
X89151D01*
X89216Y112420D01*
X89293Y112426D01*
X89380Y112431D01*
X89467Y112442D01*
X89555Y112459D01*
X89631Y112480D01*
X89642Y112486D01*
X89664Y112497D01*
X89697Y112513D01*
X89740Y112535D01*
X89789Y112568D01*
X89839Y112606D01*
X89888Y112655D01*
X89926Y112710D01*
X89931Y112715D01*
X89942Y112737D01*
X89959Y112770D01*
X89981Y112813D01*
X89997Y112863D01*
X90013Y112917D01*
X90024Y112983D01*
X90030Y113048D01*
Y113054D01*
Y113059D01*
X90024Y113092D01*
X90019Y113141D01*
X90008Y113207D01*
X89981Y113272D01*
X89948Y113349D01*
X89899Y113420D01*
X89833Y113491D01*
X89822Y113496D01*
X89795Y113518D01*
X89751Y113545D01*
X89680Y113578D01*
X89598Y113611D01*
X89489Y113638D01*
X89364Y113660D01*
X89216Y113665D01*
D02*
G37*
G36*
X59514Y78205D02*
X58640D01*
Y75322D01*
X59536D01*
X59574Y75327D01*
X59656Y75333D01*
X59749Y75338D01*
X59847Y75349D01*
X59945Y75366D01*
X60027Y75388D01*
X60038Y75393D01*
X60065Y75398D01*
X60103Y75415D01*
X60153Y75437D01*
X60207Y75469D01*
X60262Y75502D01*
X60316Y75540D01*
X60371Y75584D01*
X60376Y75595D01*
X60398Y75617D01*
X60431Y75655D01*
X60469Y75710D01*
X60513Y75781D01*
X60562Y75863D01*
X60606Y75955D01*
X60644Y76059D01*
Y76065D01*
X60649Y76076D01*
X60655Y76092D01*
X60660Y76114D01*
X60666Y76141D01*
X60677Y76179D01*
X60688Y76218D01*
X60699Y76261D01*
X60715Y76370D01*
X60731Y76496D01*
X60742Y76638D01*
X60748Y76791D01*
Y76796D01*
Y76818D01*
Y76845D01*
X60742Y76889D01*
Y76938D01*
X60737Y76993D01*
X60731Y77058D01*
X60726Y77124D01*
X60699Y77271D01*
X60666Y77424D01*
X60617Y77566D01*
X60584Y77637D01*
X60551Y77697D01*
Y77703D01*
X60540Y77714D01*
X60529Y77730D01*
X60518Y77752D01*
X60475Y77806D01*
X60420Y77872D01*
X60349Y77943D01*
X60267Y78014D01*
X60174Y78074D01*
X60076Y78123D01*
X60065Y78128D01*
X60038Y78134D01*
X59989Y78150D01*
X59918Y78167D01*
X59830Y78178D01*
X59721Y78194D01*
X59656Y78199D01*
X59585D01*
X59514Y78205D01*
D02*
G37*
G36*
X30508Y62484D02*
X29318D01*
Y61234D01*
X30442D01*
X30508Y61239D01*
X30584Y61245D01*
X30672Y61250D01*
X30759Y61261D01*
X30846Y61278D01*
X30923Y61299D01*
X30934Y61305D01*
X30955Y61316D01*
X30988Y61332D01*
X31032Y61354D01*
X31081Y61387D01*
X31130Y61425D01*
X31179Y61474D01*
X31218Y61529D01*
X31223Y61534D01*
X31234Y61556D01*
X31250Y61589D01*
X31272Y61632D01*
X31289Y61682D01*
X31305Y61736D01*
X31316Y61802D01*
X31321Y61867D01*
Y61873D01*
Y61878D01*
X31316Y61911D01*
X31310Y61960D01*
X31299Y62025D01*
X31272Y62091D01*
X31239Y62168D01*
X31190Y62239D01*
X31125Y62309D01*
X31114Y62315D01*
X31087Y62337D01*
X31043Y62364D01*
X30972Y62397D01*
X30890Y62430D01*
X30781Y62457D01*
X30655Y62479D01*
X30508Y62484D01*
D02*
G37*
G36*
X143060Y29752D02*
Y29746D01*
X143054Y29735D01*
Y29713D01*
X143043Y29692D01*
X143038Y29653D01*
X143027Y29615D01*
X143005Y29522D01*
X142978Y29413D01*
X142940Y29293D01*
X142902Y29162D01*
X142852Y29026D01*
X142443Y27923D01*
X143720D01*
X143327Y28960D01*
Y28965D01*
X143322Y28982D01*
X143311Y29009D01*
X143300Y29042D01*
X143284Y29080D01*
X143267Y29129D01*
X143251Y29184D01*
X143229Y29239D01*
X143185Y29364D01*
X143142Y29495D01*
X143098Y29626D01*
X143060Y29752D01*
D02*
G37*
G36*
X150221Y62517D02*
X149030D01*
Y61267D01*
X150155D01*
X150221Y61272D01*
X150297Y61278D01*
X150384Y61283D01*
X150472Y61294D01*
X150559Y61310D01*
X150636Y61332D01*
X150647Y61338D01*
X150668Y61348D01*
X150701Y61365D01*
X150745Y61387D01*
X150794Y61419D01*
X150843Y61458D01*
X150892Y61507D01*
X150931Y61561D01*
X150936Y61567D01*
X150947Y61589D01*
X150963Y61621D01*
X150985Y61665D01*
X151002Y61714D01*
X151018Y61769D01*
X151029Y61834D01*
X151034Y61900D01*
Y61905D01*
Y61911D01*
X151029Y61944D01*
X151023Y61993D01*
X151012Y62058D01*
X150985Y62124D01*
X150952Y62200D01*
X150903Y62271D01*
X150838Y62342D01*
X150827Y62348D01*
X150800Y62370D01*
X150756Y62397D01*
X150685Y62430D01*
X150603Y62462D01*
X150494Y62490D01*
X150368Y62511D01*
X150221Y62517D01*
D02*
G37*
G36*
X33557Y77907D02*
X32367Y76215D01*
X33557D01*
Y77907D01*
D02*
G37*
G36*
X30150Y78240D02*
X28960D01*
Y76990D01*
X30085D01*
X30150Y76995D01*
X30227Y77001D01*
X30314Y77006D01*
X30401Y77017D01*
X30489Y77034D01*
X30565Y77056D01*
X30576Y77061D01*
X30598Y77072D01*
X30631Y77088D01*
X30674Y77110D01*
X30724Y77143D01*
X30773Y77181D01*
X30822Y77230D01*
X30860Y77285D01*
X30865Y77290D01*
X30876Y77312D01*
X30893Y77345D01*
X30915Y77389D01*
X30931Y77438D01*
X30947Y77492D01*
X30958Y77558D01*
X30964Y77623D01*
Y77629D01*
Y77634D01*
X30958Y77667D01*
X30953Y77716D01*
X30942Y77782D01*
X30915Y77847D01*
X30882Y77924D01*
X30833Y77995D01*
X30767Y78066D01*
X30756Y78071D01*
X30729Y78093D01*
X30685Y78120D01*
X30614Y78153D01*
X30532Y78186D01*
X30423Y78213D01*
X30298Y78235D01*
X30150Y78240D01*
D02*
G37*
%LPD*%
D10*
X45445Y18736D02*
G03*
X45445Y18736I-394J0D01*
G01*
D11*
X42717Y25591D02*
G03*
X42717Y25591I-19094J0D01*
G01*
X101181Y78839D02*
Y84035D01*
X127165D01*
Y78839D02*
Y84035D01*
Y6516D02*
Y11713D01*
X101181Y6516D02*
X127165D01*
X101181D02*
Y11713D01*
X1181Y88583D02*
Y124016D01*
X58268D01*
Y116732D02*
Y124016D01*
X1181Y88583D02*
X58268D01*
Y96260D01*
X95413Y113858D02*
X132933D01*
Y94842D02*
Y113858D01*
X95413Y94842D02*
Y113858D01*
Y94842D02*
X132933D01*
D12*
X94665Y75276D02*
G03*
X94665Y75276I-394J0D01*
G01*
X93898Y104331D02*
G03*
X93898Y104331I-394J0D01*
G01*
X70866Y64567D02*
Y72835D01*
X54331Y64567D02*
X70866D01*
X54331Y72835D02*
X70866D01*
X54331Y64567D02*
Y72835D01*
X141732Y11417D02*
Y24016D01*
Y11417D02*
X157874D01*
Y24016D01*
X141732D02*
X157874D01*
X147606Y43370D02*
X151606D01*
X147606Y35370D02*
Y43370D01*
Y35370D02*
X151606D01*
Y43370D01*
X147756Y52756D02*
Y57480D01*
X155827Y52756D02*
Y57480D01*
X147756Y52756D02*
X155827D01*
X147756Y57480D02*
X155827D01*
X53543Y53150D02*
X68898D01*
Y45276D02*
Y53150D01*
X53543Y45276D02*
X68898D01*
X53543D02*
Y53150D01*
X37008Y55118D02*
Y62992D01*
Y55118D02*
X41732D01*
Y62992D01*
Y70866D02*
Y78740D01*
X37008Y70866D02*
X41732D01*
X37008Y78740D02*
X41732D01*
X37008Y62992D02*
X41732D01*
X37008Y70866D02*
Y78740D01*
D13*
X63779Y106299D02*
G03*
X63779Y106299I-787J0D01*
G01*
D14*
X55118Y68701D02*
D03*
M02*
