G04*
G04 #@! TF.GenerationSoftware,Altium Limited,Altium Designer,20.2.7 (254)*
G04*
G04 Layer_Color=8388736*
%FSLAX25Y25*%
%MOIN*%
G70*
G04*
G04 #@! TF.SameCoordinates,EE1AD421-979F-440A-8BD1-8888F99C881E*
G04*
G04*
G04 #@! TF.FilePolarity,Negative*
G04*
G01*
G75*
%ADD21R,0.04343X0.05918*%
%ADD22R,0.02769X0.02769*%
%ADD23R,0.03005X0.03162*%
%ADD24R,0.05131X0.06233*%
%ADD25R,0.03162X0.03005*%
%ADD26R,0.03162X0.02808*%
%ADD27R,0.06225X0.06225*%
%ADD28C,0.06225*%
%ADD29R,0.05406X0.05406*%
%ADD30C,0.05406*%
%ADD31O,0.10642X0.20485*%
%ADD32O,0.09658X0.18517*%
%ADD33R,0.05595X0.05595*%
%ADD34C,0.05595*%
%ADD35R,0.08674X0.07099*%
D21*
X67323Y68701D02*
D03*
X58661D02*
D03*
D22*
X149606Y41339D02*
D03*
Y37402D02*
D03*
D23*
X153543Y55118D02*
D03*
X150118D02*
D03*
D24*
X57626Y49213D02*
D03*
X64421D02*
D03*
D25*
X39370Y57342D02*
D03*
Y60768D02*
D03*
D26*
Y73051D02*
D03*
Y76555D02*
D03*
D27*
X31496Y20591D02*
D03*
D28*
Y30591D02*
D03*
D29*
X98543Y75276D02*
D03*
D30*
Y65276D02*
D03*
Y55276D02*
D03*
Y45276D02*
D03*
Y35276D02*
D03*
Y25276D02*
D03*
Y15276D02*
D03*
X129803D02*
D03*
Y25276D02*
D03*
Y35276D02*
D03*
Y45276D02*
D03*
Y55276D02*
D03*
Y65276D02*
D03*
Y75276D02*
D03*
D31*
X55118Y106299D02*
D03*
D32*
X31496D02*
D03*
D33*
X104173Y104331D02*
D03*
D34*
X114173D02*
D03*
X124173D02*
D03*
D35*
X149606Y17717D02*
D03*
M02*
