G04*
G04 #@! TF.GenerationSoftware,Altium Limited,Altium Designer,20.2.7 (254)*
G04*
G04 Layer_Physical_Order=1*
G04 Layer_Color=255*
%FSLAX25Y25*%
%MOIN*%
G70*
G04*
G04 #@! TF.SameCoordinates,EE1AD421-979F-440A-8BD1-8888F99C881E*
G04*
G04*
G04 #@! TF.FilePolarity,Positive*
G04*
G01*
G75*
%ADD15R,0.03543X0.05118*%
%ADD16R,0.01968X0.01968*%
%ADD17R,0.02205X0.02362*%
%ADD18R,0.04331X0.05433*%
%ADD19R,0.02362X0.02205*%
%ADD20R,0.02362X0.02008*%
%ADD36C,0.01968*%
%ADD37C,0.02362*%
%ADD38C,0.03150*%
%ADD39C,0.03937*%
%ADD40R,0.05425X0.05425*%
%ADD41C,0.05425*%
%ADD42R,0.04606X0.04606*%
%ADD43C,0.04606*%
%ADD44O,0.09843X0.19685*%
%ADD45O,0.08858X0.17717*%
%ADD46R,0.04795X0.04795*%
%ADD47C,0.04795*%
%ADD48R,0.07874X0.06299*%
%ADD49C,0.02362*%
%ADD50C,0.03543*%
D15*
X67323Y68701D02*
D03*
X58661D02*
D03*
D16*
X149606Y41339D02*
D03*
Y37402D02*
D03*
D17*
X153543Y55118D02*
D03*
X150118D02*
D03*
D18*
X57626Y49213D02*
D03*
X64421D02*
D03*
D19*
X39370Y57342D02*
D03*
Y60768D02*
D03*
D20*
Y73051D02*
D03*
Y76555D02*
D03*
D36*
Y82677D01*
X155512Y47244D02*
Y49213D01*
X153543Y51181D02*
X155512Y49213D01*
X153543Y51181D02*
Y55118D01*
X98543Y45276D02*
Y55276D01*
Y35276D02*
Y45276D01*
X39370Y57342D02*
X56473D01*
X57626Y49213D02*
Y56189D01*
X56473Y57342D02*
X57626Y56189D01*
X149606Y17717D02*
Y37402D01*
X58661Y61921D02*
Y68898D01*
X39370Y60768D02*
X57508D01*
X58661Y61921D01*
X47244Y70051D02*
Y71898D01*
X48397Y68898D02*
X58661D01*
X47244Y70051D02*
X48397Y68898D01*
X39370Y73051D02*
X46091D01*
X47244Y71898D01*
X142548Y45276D02*
X143701Y44122D01*
Y42492D02*
Y44122D01*
X149606Y47933D02*
X150118Y48445D01*
Y55118D01*
X149606Y41339D02*
Y47933D01*
X143701Y42492D02*
X144854Y41339D01*
X149606D01*
X129803Y45276D02*
X142548D01*
D37*
X72835Y84061D02*
Y105146D01*
X39370Y82677D02*
X71451D01*
X72835Y84061D01*
X55118Y106299D02*
X71681D01*
X72835Y105146D01*
D38*
X88583Y102486D02*
X90428Y104331D01*
X104173D01*
X90428Y75276D02*
X98543D01*
X88583Y77121D02*
X90428Y75276D01*
X88583Y77121D02*
Y102486D01*
X78864Y76772D02*
X80709Y78617D01*
X82554Y118110D02*
X136642D01*
X59815Y76772D02*
X78864D01*
X80709Y78617D02*
Y116265D01*
X82554Y118110D01*
X67323Y68898D02*
X78740D01*
X134733Y14997D02*
X135827Y13903D01*
X130082Y14997D02*
X134733D01*
X135827Y9719D02*
Y13903D01*
Y9719D02*
X137672Y7874D01*
X159572D01*
X129803Y65276D02*
X159572D01*
Y7874D02*
X161417Y9719D01*
Y63431D01*
X159572Y65276D02*
X161417Y63431D01*
X129803Y15276D02*
X130082Y14997D01*
X112205Y67121D02*
Y86738D01*
X114050Y65276D02*
X129803D01*
X112205Y67121D02*
X114050Y65276D01*
Y88583D02*
X122171D01*
X112205Y86738D02*
X114050Y88583D01*
X124016Y90428D02*
Y104173D01*
X122171Y88583D02*
X124016Y90428D01*
Y104173D02*
X124173Y104331D01*
X58661Y75618D02*
X59815Y76772D01*
X58661Y68898D02*
Y75618D01*
X104173Y104331D02*
X114173D01*
X129803Y45276D02*
Y55276D01*
X98543Y25276D02*
X129803D01*
X98543Y65276D02*
Y75276D01*
X129803Y25276D02*
Y35276D01*
Y75276D02*
X130082Y74997D01*
X136448D01*
X136642Y74803D01*
X88583Y51519D02*
Y62654D01*
X91076Y65148D02*
X98415D01*
X88583Y62654D02*
X91076Y65148D01*
X64421Y49213D02*
X86276D01*
X88583Y51519D01*
X137795Y75956D02*
Y116957D01*
X136642Y74803D02*
X137795Y75956D01*
X136642Y118110D02*
X137795Y116957D01*
D39*
X98415Y65148D02*
X98543Y65276D01*
X57626Y22897D02*
Y49213D01*
X31496Y20591D02*
X55320D01*
X57626Y22897D01*
X31496Y20591D02*
X31586Y20500D01*
D40*
X31496Y20591D02*
D03*
D41*
Y30591D02*
D03*
D42*
X98543Y75276D02*
D03*
D43*
Y65276D02*
D03*
Y55276D02*
D03*
Y45276D02*
D03*
Y35276D02*
D03*
Y25276D02*
D03*
Y15276D02*
D03*
X129803D02*
D03*
Y25276D02*
D03*
Y35276D02*
D03*
Y45276D02*
D03*
Y55276D02*
D03*
Y65276D02*
D03*
Y75276D02*
D03*
D44*
X55118Y106299D02*
D03*
D45*
X31496D02*
D03*
D46*
X104173Y104331D02*
D03*
D47*
X114173D02*
D03*
X124173D02*
D03*
D48*
X149606Y17717D02*
D03*
D49*
X155512Y47244D02*
D03*
D50*
X78740Y68898D02*
D03*
M02*
